<svg width="135" height="38" viewBox="0 0 135 38" fill="none" xmlns="http://www.w3.org/2000/svg">
<g clip-path="url(#clip0_0_401)">
<path d="M41.313 16.8916H34.2339C34.1462 16.8917 34.062 16.927 34 16.9899C33.938 17.0527 33.9031 17.138 33.9031 17.2268V20.7337C33.9031 20.8227 33.938 20.9079 34 20.9709C34.062 21.0338 34.1461 21.0693 34.2339 21.0695H36.9955V25.4263C36.9955 25.4263 36.3754 25.6406 34.661 25.6406C32.6385 25.6406 29.813 24.8916 29.813 18.5966C29.813 12.3004 32.7551 11.4718 35.5173 11.4718C37.9082 11.4718 38.9382 11.8985 39.5936 12.1038C39.7995 12.1678 39.99 11.9602 39.99 11.7748L40.7798 8.38668C40.7798 8.30012 40.7508 8.19561 40.6533 8.12469C40.3872 7.93239 38.7633 7.01172 34.661 7.01172C29.9351 7.01172 25.0875 9.04909 25.0875 18.8421C25.0875 28.6358 30.6377 30.095 35.3146 30.095C39.1872 30.095 41.5363 28.4183 41.5363 28.4183C41.6332 28.3639 41.6437 28.2268 41.6437 28.1639V17.2267C41.6437 17.0418 41.4956 16.8916 41.313 16.8916ZM77.7961 8.18512C77.7965 8.14111 77.7883 8.09745 77.7719 8.05667C77.7556 8.01588 77.7315 7.97876 77.7009 7.94745C77.6704 7.91614 77.6341 7.89125 77.594 7.8742C77.554 7.85716 77.511 7.8483 77.4675 7.84814H73.4814C73.4379 7.8483 73.3948 7.85715 73.3547 7.87417C73.3145 7.8912 73.2781 7.91606 73.2474 7.94735C73.2168 7.97865 73.1925 8.01575 73.176 8.05655C73.1595 8.09734 73.1511 8.14103 73.1512 8.18512L73.1523 15.99H66.9392V8.18512C66.9395 8.14109 66.9313 8.09743 66.9149 8.05664C66.8985 8.01585 66.8744 7.97874 66.8438 7.94743C66.8132 7.91612 66.7769 7.89123 66.7368 7.87419C66.6967 7.85716 66.6537 7.8483 66.6103 7.84814H62.6245C62.5367 7.84861 62.4527 7.88437 62.391 7.94756C62.3292 8.01075 62.2948 8.0962 62.2952 8.18512V29.3185C62.2952 29.5047 62.4431 29.6564 62.6245 29.6564H66.6103C66.7925 29.6564 66.9392 29.5046 66.9392 29.3185V20.2789H73.1523L73.1414 29.3185C73.1414 29.5047 73.2895 29.6564 73.4717 29.6564H77.4672C77.6498 29.6564 77.7958 29.5046 77.7961 29.3185V8.18512ZM48.8347 10.9585C48.8347 9.50409 47.684 8.32891 46.2644 8.32891C44.8461 8.32891 43.6945 9.50409 43.6945 10.9585C43.6945 12.4111 44.8461 13.5893 46.2644 13.5893C47.684 13.5893 48.8347 12.4111 48.8347 10.9585ZM48.5497 24.8605V15.1054C48.5499 15.0165 48.5153 14.9311 48.4535 14.8679C48.3917 14.8048 48.3077 14.7691 48.2199 14.7686H44.2465C44.0643 14.7686 43.9011 14.9591 43.9011 15.1445V29.1205C43.9011 29.5314 44.1537 29.6533 44.4807 29.6533H48.0606C48.4534 29.6533 48.5497 29.4578 48.5497 29.1141V24.8605ZM92.9444 14.8004H88.9889C88.8076 14.8004 88.6599 14.9518 88.6599 15.1383V25.5006C88.6599 25.5006 87.6549 26.2456 86.2288 26.2456C84.8026 26.2456 84.4242 25.59 84.4242 24.175V15.1383C84.4242 14.9518 84.2767 14.8004 84.0953 14.8004H80.0807C79.8997 14.8004 79.7511 14.9518 79.7511 15.1383V24.8591C79.7511 29.0618 82.063 30.09 85.2434 30.09C87.8524 30.09 89.9558 28.6298 89.9558 28.6298C89.9558 28.6298 90.056 29.3992 90.1013 29.4905C90.1467 29.5815 90.2648 29.6734 90.3923 29.6734L92.9464 29.662C93.1274 29.662 93.276 29.5103 93.276 29.3247L93.2746 15.1385C93.2746 14.9518 93.1267 14.8004 92.9444 14.8004ZM102.195 26.2328C100.823 26.1905 99.8925 25.5596 99.8925 25.5596V18.8673C99.8925 18.8673 100.81 18.2972 101.937 18.1951C103.361 18.0659 104.734 18.5019 104.734 21.9445C104.734 25.5749 104.114 26.2913 102.195 26.2328ZM103.755 14.3259C101.509 14.3259 99.9806 15.3414 99.9806 15.3414V8.1853C99.9806 7.99868 99.8334 7.84814 99.6517 7.84814H95.6544C95.611 7.84835 95.5679 7.85724 95.5278 7.8743C95.4878 7.89136 95.4514 7.91625 95.4208 7.94756C95.3902 7.97888 95.366 8.01599 95.3495 8.05678C95.3331 8.09757 95.3248 8.14124 95.325 8.1853V29.3185C95.325 29.5047 95.4727 29.6564 95.655 29.6564H98.4285C98.5532 29.6564 98.6478 29.5911 98.7176 29.477C98.7865 29.3634 98.886 28.5027 98.886 28.5027C98.886 28.5027 100.521 30.0721 103.615 30.0721C107.247 30.0721 109.33 28.2052 109.33 21.6912C109.33 15.177 106.003 14.3259 103.755 14.3259ZM60.0057 14.7668H57.0157L57.0111 10.7644C57.0111 10.613 56.9341 10.5373 56.7613 10.5373H52.6867C52.5283 10.5373 52.4432 10.608 52.4432 10.7621V14.8982C52.4432 14.8982 50.4014 15.3974 50.2633 15.4379C50.1945 15.4582 50.134 15.5005 50.0909 15.5586C50.0478 15.6167 50.0246 15.6874 50.0246 15.76V18.359C50.0246 18.546 50.1719 18.6964 50.3542 18.6964H52.4432V24.9487C52.4432 29.5929 55.6583 30.0491 57.8279 30.0491C58.8191 30.0491 60.005 29.7267 60.2007 29.6532C60.3191 29.6091 60.3879 29.4848 60.3879 29.3501L60.3912 26.4911C60.3912 26.3045 60.2358 26.1539 60.0607 26.1539C59.8865 26.1539 59.4408 26.2257 58.9819 26.2257C57.5133 26.2257 57.0157 25.5338 57.0157 24.6382L57.0155 18.6962H60.0057C60.1879 18.6962 60.3354 18.5456 60.3354 18.3588V15.1033C60.3356 15.0592 60.3273 15.0156 60.3108 14.9748C60.2943 14.934 60.2701 14.897 60.2394 14.8657C60.2088 14.8345 60.1724 14.8096 60.1323 14.7927C60.0922 14.7757 60.0491 14.7669 60.0057 14.7668Z" fill="#121110"/>
</g>
<defs>
<clipPath id="clip0_0_401">
<rect width="84.254" height="23.0833" fill="white" transform="translate(25.0804 7.01172)"/>
</clipPath>
</defs>
</svg>
