<svg width="135" height="38" viewBox="0 0 135 38" fill="none" xmlns="http://www.w3.org/2000/svg">
<g clip-path="url(#clip0_0_417)">
<path d="M126.641 17.3448V15.2542H124.061V12.0041L123.974 12.031L121.551 12.7771L121.503 12.7917V15.2543H117.679V13.8824C117.679 13.2436 117.821 12.7548 118.1 12.4288C118.378 12.1067 118.775 11.9429 119.282 11.9429C119.646 11.9429 120.024 12.0293 120.403 12.1996L120.498 12.2424V10.0407L120.454 10.0242C120.1 9.89605 119.618 9.83154 119.021 9.83154C118.268 9.83154 117.585 9.99633 116.988 10.3229C116.392 10.65 115.923 11.1168 115.594 11.7104C115.266 12.3033 115.1 12.9881 115.1 13.7459V15.2542H113.304V17.3448H115.1V26.1521H117.679V17.3448H121.503V22.9417C121.503 25.2467 122.584 26.4148 124.714 26.4148C125.064 26.4148 125.433 26.3736 125.809 26.2927C126.192 26.2097 126.453 26.1268 126.607 26.0382L126.641 26.018V23.9081L126.536 23.9779C126.396 24.0717 126.222 24.1484 126.017 24.2055C125.812 24.2635 125.641 24.2926 125.508 24.2926C125.009 24.2926 124.639 24.1573 124.41 23.8901C124.179 23.6206 124.061 23.1492 124.061 22.4899V17.3448H126.641ZM107.545 24.293C106.609 24.293 105.871 23.9806 105.351 23.3654C104.828 22.7471 104.562 21.8656 104.562 20.7455C104.562 19.5899 104.828 18.6855 105.351 18.0563C105.871 17.4312 106.602 17.1139 107.524 17.1139C108.418 17.1139 109.13 17.4169 109.64 18.015C110.152 18.6162 110.412 19.5134 110.412 20.6824C110.412 21.8658 110.168 22.7748 109.685 23.3829C109.206 23.9864 108.486 24.293 107.545 24.293ZM107.659 14.9917C105.874 14.9917 104.455 15.5182 103.444 16.5567C102.434 17.5954 101.921 19.0327 101.921 20.8291C101.921 22.5354 102.421 23.9079 103.408 24.9077C104.395 25.9079 105.737 26.4146 107.398 26.4146C109.129 26.4146 110.519 25.8807 111.53 24.8278C112.541 23.7761 113.053 22.3523 113.053 20.5979C113.053 18.8649 112.572 17.4822 111.624 16.489C110.676 15.4953 109.342 14.9917 107.659 14.9917ZM97.7634 14.9917C96.5487 14.9917 95.544 15.3043 94.7764 15.9208C94.0042 16.541 93.6125 17.3543 93.6125 18.3386C93.6125 18.8502 93.697 19.3046 93.8634 19.6901C94.0308 20.0768 94.2899 20.4173 94.634 20.7031C94.9756 20.9865 95.5028 21.2835 96.2015 21.5855C96.7888 21.8288 97.2268 22.0345 97.5051 22.1966C97.777 22.3555 97.97 22.5153 98.079 22.6709C98.185 22.8231 98.2387 23.0315 98.2387 23.2886C98.2387 24.0208 97.6938 24.377 96.5727 24.377C96.1569 24.377 95.6826 24.2896 95.163 24.1174C94.6471 23.9477 94.1602 23.6993 93.7193 23.3807L93.6122 23.3034V25.8019L93.6515 25.8203C94.0164 25.9898 94.4765 26.1328 95.0187 26.2452C95.5599 26.3578 96.0516 26.4151 96.4787 26.4151C97.7968 26.4151 98.8583 26.1009 99.6328 25.4807C100.412 24.8563 100.807 24.0238 100.807 23.0055C100.807 22.2709 100.595 21.641 100.175 21.1329C99.7592 20.629 99.0366 20.1664 98.0289 19.7575C97.226 19.4332 96.7117 19.164 96.4995 18.9574C96.2949 18.7577 96.1911 18.4754 96.1911 18.1179C96.1911 17.801 96.3193 17.5471 96.5825 17.3415C96.8477 17.1348 97.2169 17.0297 97.6799 17.0297C98.1096 17.0297 98.5492 17.098 98.9863 17.2319C99.4232 17.3657 99.8069 17.545 100.127 17.7643L100.233 17.8367V15.4667L100.192 15.4492C99.8966 15.3217 99.507 15.2126 99.0337 15.124C98.5625 15.0361 98.1352 14.9917 97.7634 14.9917ZM86.8899 24.293C85.9541 24.293 85.2159 23.9806 84.696 23.3654C84.1726 22.7471 83.908 21.8658 83.908 20.7455C83.908 19.5899 84.173 18.6855 84.6966 18.0563C85.2165 17.4312 85.9472 17.1139 86.8692 17.1139C87.763 17.1139 88.4748 17.4169 88.9848 18.015C89.4973 18.6162 89.7572 19.5134 89.7572 20.6824C89.7572 21.8658 89.5126 22.7748 89.0304 23.3829C88.5515 23.9864 87.8317 24.293 86.8899 24.293ZM87.0048 14.9917C85.2187 14.9917 83.8002 15.5182 82.7895 16.5567C81.7789 17.5954 81.2662 19.0327 81.2662 20.8291C81.2662 22.5361 81.7667 23.9079 82.7533 24.9077C83.7399 25.9079 85.0824 26.4146 86.7436 26.4146C88.4743 26.4146 89.8648 25.8807 90.8756 24.8278C91.8861 23.7761 92.3983 22.3523 92.3983 20.5979C92.3983 18.8649 91.9177 17.4822 90.9694 16.489C90.0206 15.4953 88.6866 14.9917 87.0048 14.9917ZM77.3517 17.1415V15.2542H74.8044V26.1518H77.3517V20.5773C77.3517 19.6294 77.5653 18.8506 77.9867 18.2625C78.4028 17.6813 78.9572 17.3868 79.6342 17.3868C79.8636 17.3868 80.1212 17.4248 80.4001 17.5002C80.6762 17.575 80.8762 17.6563 80.9941 17.7419L81.1012 17.82V15.2356L81.0599 15.2178C80.8227 15.1163 80.4871 15.0652 80.0625 15.0652C79.4223 15.0652 78.8495 15.2721 78.3588 15.6797C77.9281 16.0379 77.6168 16.529 77.3788 17.1415H77.3517ZM70.2427 14.9917C69.074 14.9917 68.0317 15.2439 67.145 15.741C66.2566 16.2392 65.5695 16.9506 65.102 17.8551C64.6366 18.7575 64.4003 19.8115 64.4003 20.987C64.4003 22.0167 64.6294 22.9616 65.0822 23.7944C65.5353 24.6285 66.1766 25.2811 66.9884 25.7337C67.799 26.1858 68.7359 26.415 69.7732 26.415C70.9838 26.415 72.0174 26.1714 72.8461 25.6911L72.8796 25.6717V23.3232L72.7725 23.4019C72.3971 23.6771 71.9776 23.8967 71.5263 24.0549C71.076 24.213 70.6656 24.293 70.3056 24.293C69.3061 24.293 68.5037 23.9782 67.9213 23.3577C67.3376 22.7364 67.0416 21.8639 67.0416 20.7661C67.0416 19.6614 67.3503 18.7665 67.9585 18.1062C68.565 17.4478 69.3688 17.1139 70.3477 17.1139C71.1849 17.1139 72.0008 17.3992 72.7727 17.9627L72.8796 18.0407V15.5662L72.845 15.5466C72.5546 15.383 72.1584 15.2479 71.6666 15.1454C71.1768 15.0432 70.6978 14.9917 70.2427 14.9917ZM62.6459 15.2543H60.0986V26.1518H62.6459V15.2543ZM61.3983 10.6119C60.979 10.6119 60.6134 10.7555 60.313 11.0401C60.0113 11.3255 59.8583 11.6849 59.8583 12.109C59.8583 12.5264 60.0095 12.8792 60.3083 13.1571C60.6051 13.4341 60.9719 13.5745 61.3984 13.5745C61.8247 13.5745 62.1929 13.4341 62.4933 13.1575C62.7957 12.8792 62.949 12.5265 62.949 12.109C62.949 11.6997 62.7998 11.3441 62.5058 11.0516C62.212 10.7598 61.8393 10.6119 61.3983 10.6119ZM55.0426 14.4503V26.1518H57.6422V10.9455H54.0442L49.4709 22.2403L45.0328 10.9455H41.2883V26.1517H43.7312V14.4491H43.8151L48.5017 26.1518H50.3453L54.9587 14.4503H55.0426Z" fill="#706D6E"/>
<path d="M20.4973 17.9235H8.51404V5.86426H20.4973V17.9235Z" fill="#F1511B"/>
<path d="M33.7294 17.9235H21.7463V5.86426H33.7294V17.9235Z" fill="#80CC28"/>
<path d="M20.497 31.2424H8.51404V19.1833H20.497V31.2424Z" fill="#00ADEF"/>
<path d="M33.7294 31.2424H21.7463V19.1833H33.7294V31.2424Z" fill="#FBBC09"/>
</g>
<defs>
<clipPath id="clip0_0_417">
<rect width="118.126" height="25.3916" fill="white" transform="translate(8.51385 5.85742)"/>
</clipPath>
</defs>
</svg>
