<svg width="96" height="36" viewBox="0 0 96 36" fill="none" xmlns="http://www.w3.org/2000/svg">
<path d="M32.7924 12.2684C31.4572 10.7707 29.8058 10.0168 27.8431 10.0168C26.6334 10.0168 25.5191 10.2527 24.4951 10.7297C23.4711 11.2067 22.5877 11.8529 21.8398 12.6787C21.0969 13.5096 20.5096 14.4738 20.0779 15.5919C19.6463 16.7049 19.4304 17.9102 19.4304 19.213C19.4304 20.4901 19.6312 21.6544 20.0277 22.7058C20.4293 23.7521 20.9865 24.6497 21.7093 25.3985C22.4321 26.1473 23.2904 26.732 24.2843 27.1526C25.2782 27.5731 26.3674 27.7834 27.552 27.7834C28.0891 27.7834 28.586 27.7424 29.0378 27.6655C29.4895 27.5885 29.9212 27.4603 30.3328 27.2859C30.7444 27.1064 31.146 26.8807 31.5476 26.6089C31.9441 26.3319 32.3607 25.9832 32.7924 25.5677V30.0145H32.7874V30.4454H27.3061L23.185 35.1845V36H38.6502V34.0766V10.4835H32.7924V12.2684ZM32.7773 20.4183C32.5715 20.8901 32.3005 21.3056 31.9692 21.6595C31.6329 22.0134 31.2363 22.2852 30.7746 22.4852C30.3128 22.6853 29.8208 22.7827 29.3038 22.7827C28.7617 22.7827 28.2598 22.6853 27.798 22.4852C27.3362 22.2852 26.9346 22.0134 26.5983 21.6595C26.262 21.3056 26.001 20.8901 25.8052 20.4183C25.6095 19.9464 25.5141 19.4284 25.5141 18.8796C25.5141 18.3513 25.6145 17.8538 25.8203 17.3922C26.0261 16.9306 26.2971 16.5305 26.6485 16.1869C26.9948 15.8433 27.3914 15.5714 27.8431 15.3611C28.2949 15.1509 28.7818 15.0483 29.2988 15.0483C29.7957 15.0483 30.2726 15.1457 30.7394 15.3458C31.2012 15.5407 31.6078 15.8176 31.9541 16.1715C32.3005 16.5254 32.5715 16.9306 32.7824 17.3922C32.9882 17.8538 33.0885 18.3616 33.0885 18.9155C33.0835 19.4438 32.9831 19.9464 32.7773 20.4183Z" fill="white"/>
<path d="M16.449 12.5454C16.1378 12.171 15.7864 11.8479 15.41 11.5606C15.0737 11.3093 14.7173 11.0888 14.3308 10.9093C14.145 10.8221 13.9493 10.7503 13.7435 10.6836C13.4473 10.5861 13.1261 10.5195 12.7948 10.463H8.61854L5.85779 13.6789V13.3045V10.5297H0V27.4962H5.85779V20.2183V16.0485H6.67096H8.30231H11.2889H11.3592L11.816 16.0382V27.4911H17.6738V16.8793C17.6738 15.9767 17.5884 15.1714 17.4178 14.4636C17.2471 13.7609 16.9259 13.125 16.449 12.5454Z" fill="white"/>
<path d="M55.877 10.4835H51.5351C51.5351 10.4835 49.9841 10.4835 49.4872 10.4835L46.9473 13.407V10.4835H41.0845V27.4501H46.9573L46.9623 16.0946H48.8898H51.2239L55.877 10.7195V10.4835Z" fill="white"/>
<path d="M87.5309 18.3206L95.542 10.7708V10.4835H87.822L81.6781 16.6024V0H75.8203V27.4449H81.6781V20.5363L88.1181 27.4449H96V27.1218L87.5309 18.3206Z" fill="white"/>
<path d="M71.2421 12.4171C70.3486 11.6119 69.2895 10.9862 68.0697 10.5348C66.85 10.0835 65.5298 9.85779 64.1043 9.85779C62.6587 9.85779 61.3235 10.0886 60.1087 10.5502C58.889 11.0118 57.8399 11.6478 56.9514 12.4479C56.068 13.2531 55.3753 14.202 54.8784 15.2945C54.3814 16.3869 54.1355 17.5615 54.1355 18.818C54.1355 20.208 54.3814 21.4697 54.8784 22.6032C55.3753 23.7367 56.058 24.7112 56.9364 25.5267C57.8098 26.3422 58.8488 26.9731 60.0585 27.4141C61.2682 27.8552 62.5834 28.0758 64.0089 28.0758C65.4545 28.0758 66.7948 27.8552 68.0396 27.4141C69.2794 26.9731 70.3436 26.3525 71.227 25.5421C72.1105 24.7368 72.8082 23.7777 73.3151 22.6648C73.8221 21.5518 74.0781 20.326 74.0781 18.977C74.0781 17.6333 73.8271 16.4023 73.3352 15.2893C72.8333 14.1815 72.1355 13.2224 71.2421 12.4171ZM67.5828 20.449C67.377 20.9209 67.106 21.3364 66.7747 21.6903C66.4384 22.0441 66.0418 22.316 65.58 22.516C65.1132 22.716 64.6263 22.8135 64.1093 22.8135C63.5923 22.8135 63.1004 22.716 62.6336 22.516C62.1718 22.316 61.7702 22.0441 61.4389 21.6903C61.1026 21.3364 60.8366 20.9209 60.6308 20.449C60.425 19.9772 60.3246 19.454 60.3246 18.8796C60.3246 18.3513 60.425 17.8538 60.6308 17.3922C60.8366 16.9306 61.1026 16.5254 61.4389 16.1715C61.7752 15.8176 62.1718 15.5407 62.6336 15.3458C63.1004 15.1457 63.5873 15.0483 64.1093 15.0483C64.6263 15.0483 65.1182 15.1457 65.58 15.3458C66.0418 15.5407 66.4434 15.8176 66.7747 16.1715C67.111 16.5254 67.377 16.9409 67.5828 17.4127C67.7886 17.8846 67.889 18.3872 67.889 18.9155C67.889 19.4643 67.7886 19.9772 67.5828 20.449Z" fill="white"/>
</svg>
