<svg width="135" height="38" viewBox="0 0 135 38" fill="none" xmlns="http://www.w3.org/2000/svg">
<g clip-path="url(#clip0_0_414)">
<path d="M50.6755 18.4958C50.6755 14.5803 50.6817 10.6618 50.6662 6.74936C50.6662 6.20513 51.0356 5.86649 51.5945 5.86649C52.6284 5.86045 53.6685 5.85742 54.7024 5.86649C55.2893 5.87254 55.6308 6.22025 55.6246 6.75541C55.6091 10.2204 55.6153 13.6914 55.6153 17.1564V17.3468C55.6215 17.7308 55.7953 18.012 56.1586 18.1632C56.5095 18.3083 56.8386 18.2327 57.1242 17.9364C58.1674 16.848 59.2076 15.7565 60.2446 14.665C60.8811 13.9937 61.5269 13.3316 62.1572 12.6573C62.3962 12.4034 62.6726 12.2824 63.0296 12.2885C64.3305 12.2975 65.6377 12.2975 66.9386 12.2885C67.3236 12.2885 67.6279 12.4034 67.7893 12.7511C67.9539 13.1109 67.8763 13.4314 67.5999 13.7247C65.647 15.829 63.7003 17.9364 61.7504 20.0408C61.5952 20.2101 61.443 20.3855 61.3219 20.579C61.1046 20.9207 61.1046 21.2563 61.3064 21.604C61.5238 21.9789 61.8311 22.2812 62.1354 22.5866C64.4982 24.951 66.8672 27.3154 69.2362 29.6738C69.5218 29.961 69.6057 30.2755 69.4628 30.6443C69.3262 30.989 69.0561 31.1462 68.6121 31.1462C67.1653 31.1462 65.7153 31.1402 64.2684 31.1462C63.9424 31.1462 63.6909 31.0465 63.4581 30.8046C61.3561 28.6548 59.2386 26.5172 57.1273 24.3766C56.8261 24.0682 56.4908 23.9895 56.1431 24.1316C55.7922 24.2677 55.6091 24.558 55.6091 24.9782V30.2482C55.6091 30.8167 55.3141 31.11 54.7366 31.113H51.5572C50.9207 31.113 50.6724 30.8681 50.6724 30.2573L50.6755 18.4958ZM70.4036 14.5561C70.4036 11.965 70.4129 9.37077 70.3943 6.7796C70.3881 6.19303 70.7389 5.85742 71.3506 5.85742C72.3565 5.86347 73.3563 5.85742 74.3592 5.85742C74.946 5.85742 75.2813 6.17792 75.2813 6.74634C75.2875 8.25811 75.2875 9.77289 75.2906 11.2847C75.2906 11.9377 75.6352 12.2764 76.2997 12.2764H80.4757C80.9166 12.2764 81.2053 12.5092 81.2923 12.9295C81.3357 13.132 81.3202 13.3346 81.3264 13.5432V16.0497C81.3264 16.7059 81.0252 16.9991 80.3515 16.9991C79.0164 16.9991 77.6813 16.9931 76.3462 16.9931C75.6632 16.9931 75.3123 17.3287 75.3061 17.9848C75.2999 19.3182 75.2782 20.6455 75.2968 21.9789C75.3248 24.0107 76.9237 25.8823 79.0009 26.36C79.6125 26.5021 80.2335 26.5263 80.8545 26.4416C81.3606 26.3721 81.7269 26.6351 81.7859 27.131C81.9132 28.1862 82.0281 29.2444 82.1399 30.2997C82.1833 30.7018 81.8822 31.0706 81.4568 31.1372C80.3111 31.3276 79.1654 31.2611 78.0384 31.0132C74.0145 30.1364 71.0587 27.004 70.4812 23.0341C70.4222 22.641 70.4036 22.248 70.4036 21.858V14.5561ZM106.131 26.9375C106.131 26.5777 105.848 26.3267 105.479 26.3086C105.227 26.2995 104.979 26.2904 104.728 26.2693C103.442 26.1756 102.781 25.589 102.548 24.3554C102.368 23.4151 102.374 22.4596 102.368 21.5042C102.359 18.7619 102.362 16.0195 102.362 13.2772C102.362 13.1955 102.362 13.1199 102.355 13.0413C102.321 12.5969 101.992 12.2794 101.53 12.2794C100.446 12.2734 99.3593 12.2734 98.2757 12.2794C97.7851 12.2794 97.4374 12.6211 97.4157 13.0927C97.4095 13.2076 97.4157 13.3255 97.4157 13.4616C97.3225 13.4132 97.2511 13.38 97.1828 13.3467C95.2268 12.3459 93.1527 12.0224 90.9731 12.3762C85.4248 13.2832 81.8077 18.6953 83.1862 24.0047C84.9373 30.7411 93.2304 33.423 98.7787 29.0388C98.9091 28.936 98.9619 28.9391 99.0643 29.0781C99.6356 29.8733 100.39 30.4478 101.328 30.7955C102.362 31.1795 103.439 31.2309 104.532 31.1553C104.92 31.1281 105.305 31.0737 105.659 30.9013C105.91 30.7774 106.115 30.5929 106.122 30.3117C106.143 29.187 106.137 28.0622 106.131 26.9375ZM92.6311 26.4507C89.933 26.4416 87.7876 24.304 87.7969 21.6251C87.8062 19.0914 90.0106 16.987 92.6559 16.9931C95.3696 16.9991 97.5119 19.1217 97.5057 21.8065C97.4964 24.3372 95.2764 26.4537 92.6311 26.4507ZM38.5573 12.2401C33.4033 12.2492 28.9261 16.1253 28.8112 21.5102C28.6932 27.0796 33.2232 31.0646 38.281 31.1886C43.6896 31.3216 48.1699 27.1642 48.263 21.9124C48.3531 16.5668 44.0529 12.3006 38.5573 12.2401ZM38.5231 26.4507C35.8623 26.4507 33.6796 24.3221 33.6734 21.7219C33.6672 19.1186 35.8468 16.9931 38.5325 16.984C41.2119 16.978 43.3822 19.0975 43.3822 21.7158C43.3822 24.3342 41.2119 26.4507 38.5231 26.4507Z" fill="#00297A"/>
</g>
<defs>
<clipPath id="clip0_0_414">
<rect width="77.329" height="25.3916" fill="white" transform="translate(28.8088 5.85742)"/>
</clipPath>
</defs>
</svg>
