<svg width="135" height="38" viewBox="0 0 135 38" fill="none" xmlns="http://www.w3.org/2000/svg">
<g clip-path="url(#clip0_0_393)">
<path opacity="0.4" d="M5.90418 14.8088V22.0426H12.9742V29.2594H20.0609V14.8088H5.90418Z" fill="#00B2E3"/>
<path d="M31.0997 26.2637L34.1845 23.7957C35.0516 25.3276 36.4356 26.2127 38.0196 26.2127C39.7371 26.2127 40.6542 25.0723 40.6542 23.8298C40.6542 22.349 38.8867 21.8724 37.0025 21.2767C34.6347 20.5277 31.9834 19.5916 31.9834 16.1364C31.9834 13.2429 34.4513 10.9451 37.8696 10.9451C40.7543 10.9451 42.4051 12.0514 43.8391 13.5663L41.0544 15.7109C40.3207 14.6045 39.2869 14.0088 37.9029 14.0088C36.3355 14.0088 35.4851 14.8769 35.4851 16.0172C35.4851 17.3959 37.1859 17.8725 39.0701 18.5193C41.4713 19.3193 44.1892 20.3916 44.1892 23.8638C44.1892 26.7403 41.9548 29.4977 38.053 29.4977C34.8348 29.5147 32.7004 28.119 31.0997 26.2637ZM58.2126 16.8853H61.5141V18.264C62.2979 17.2427 63.4818 16.63 64.8657 16.63C67.7171 16.63 69.4513 18.5023 69.4513 21.7022V29.2424H66.083V22.1617C66.083 20.5107 65.3326 19.5405 63.8486 19.5405C62.5813 19.5405 61.5475 20.4256 61.5475 22.5021V29.2594H58.2292V16.8853H58.2126ZM70.2016 23.0809C70.2016 18.7065 73.3531 16.647 76.0877 16.647C77.6552 16.647 78.9058 17.2427 79.7061 18.1108V11.2004H83.0244V29.2594H79.7061V27.8807C78.9058 28.8509 77.6218 29.5147 76.0544 29.5147C73.4865 29.5147 70.2016 27.4211 70.2016 23.0809ZM79.8062 23.0468C79.8062 21.2086 78.5056 19.7278 76.7047 19.7278C74.8705 19.7278 73.4532 21.1405 73.4532 23.0468C73.4532 24.9531 74.8538 26.3829 76.7047 26.3829C78.4889 26.3829 79.8062 24.885 79.8062 23.0468ZM83.8081 20.2384C83.8081 15.0981 87.6099 10.9621 92.8457 10.9621C95.4636 10.9621 97.6647 11.9323 99.2654 13.4641C99.9158 14.0939 100.466 14.8088 100.9 15.5917L97.9481 17.43C96.8643 15.3705 95.1802 14.3152 92.8791 14.3152C89.6609 14.3152 87.1597 17.0044 87.1597 20.2554C87.1597 23.5745 89.6108 26.1956 92.9958 26.1956C95.5637 26.1956 97.3812 24.7148 98.0148 22.417H92.4622V19.098H101.65V20.4767C101.65 25.3276 98.265 29.4977 92.9958 29.4977C87.4598 29.5147 83.8081 25.2255 83.8081 20.2384ZM102.484 16.8853H105.785V18.9108C106.385 17.6172 107.486 16.8853 109.137 16.8853H110.471L109.254 20.1873H108.353C106.586 20.1873 105.802 21.1235 105.802 23.4213V29.2594H102.484V16.8853ZM111.321 16.8853H114.639V29.2594H111.321V20.1873H110.121L111.321 16.8853ZM112.989 15.013C114.089 15.013 114.973 14.1109 114.973 12.9876C114.973 11.8642 114.089 10.9621 112.989 10.9621C111.888 10.9621 111.004 11.8642 111.004 12.9876C111.004 14.0939 111.888 15.013 112.989 15.013ZM115.423 23.0809C115.423 18.7065 118.575 16.647 121.309 16.647C122.877 16.647 124.127 17.2427 124.928 18.1108V11.2004H128.246V29.2594H124.928V27.8807C124.127 28.8509 122.843 29.5147 121.276 29.5147C118.691 29.5147 115.423 27.4211 115.423 23.0809ZM125.028 23.0468C125.028 21.2086 123.727 19.7278 121.926 19.7278C120.092 19.7278 118.675 21.1405 118.675 23.0468C118.675 24.9531 120.075 26.3829 121.926 26.3829C123.71 26.3829 125.028 24.885 125.028 23.0468ZM57.4289 23.0468C57.4289 19.4895 54.8777 16.647 51.1759 16.647C47.6909 16.647 44.8729 19.5235 44.8729 23.0809C44.8729 26.6382 47.4908 29.5147 51.2759 29.5147C53.8939 29.5147 55.7781 28.2211 56.8286 26.3829L54.194 24.7829C53.6437 25.8723 52.5599 26.5531 51.2926 26.5531C49.5418 26.5531 48.4579 25.668 48.0744 24.3063H57.4289V23.0468ZM48.2245 21.566C48.7414 20.4086 49.7919 19.6086 51.2092 19.6086C52.6099 19.6086 53.6604 20.2724 54.094 21.566H48.2245Z" fill="#243746"/>
<path d="M5.90418 22.0425H12.9742V29.2593H5.90418V22.0425Z" fill="#1A82E2"/>
<path d="M20.0601 14.8086V7.5918H12.9734V22.0424H27.1302V14.8086H20.0601Z" fill="#00B2E3"/>
<path d="M20.0607 7.5918H27.1307V14.8086H20.0607V7.5918Z" fill="#1A82E2"/>
</g>
<defs>
<clipPath id="clip0_0_393">
<rect width="122.341" height="21.9291" fill="white" transform="translate(5.90375 7.58862)"/>
</clipPath>
</defs>
</svg>
