<svg width="116" height="33" viewBox="0 0 116 33" fill="none" xmlns="http://www.w3.org/2000/svg">
<path d="M38.4471 7.46963C38.4366 7.40494 38.4047 7.34555 38.3564 7.30077C38.3081 7.256 38.2461 7.22839 38.1802 7.2223C38.0737 7.20541 35.7333 7.04503 35.7333 7.04503L33.9489 5.27824C33.7886 5.10097 33.4322 5.1533 33.2975 5.19045C33.2804 5.19045 32.9411 5.29596 32.3878 5.47408C31.8489 3.93267 30.8958 2.51789 29.2179 2.51789H29.0746C28.5929 1.90166 28.0046 1.61719 27.5059 1.61719C23.5976 1.63407 21.7339 6.46088 21.1456 8.92747L18.4139 9.75726C17.5758 10.0215 17.5443 10.0409 17.4334 10.8319L15.1306 28.4179L32.3937 31.6172L41.75 29.6199C41.75 29.6031 38.465 7.63846 38.4479 7.47132L38.4471 7.46963ZM31.4303 5.77122C30.9955 5.91303 30.4925 6.05485 29.9673 6.21439V5.89615C29.9843 5.10097 29.8624 4.30916 29.6109 3.55281C30.4857 3.68618 31.0739 4.65864 31.4303 5.77122ZM28.5571 3.75709C28.8427 4.59026 28.9834 5.46817 28.9476 6.34861V6.50731L25.9294 7.43587C26.5203 5.25207 27.609 4.17241 28.5554 3.76638L28.5571 3.75709ZM27.3976 2.6825C27.5766 2.68672 27.7497 2.74159 27.8972 2.84119C26.6379 3.42197 25.3071 4.8874 24.7358 7.82164L22.3486 8.54591C23.0221 6.31906 24.5935 2.67743 27.3959 2.67743L27.3976 2.6825Z" fill="#95BF47"/>
<path d="M38.184 7.2195C38.0774 7.20262 35.7371 7.04223 35.7371 7.04223L33.9526 5.27544C33.887 5.20791 33.7974 5.17077 33.7028 5.16992L32.4001 31.6119L41.7563 29.6146L38.4517 7.48287C38.4295 7.34781 38.3221 7.23976 38.1848 7.21866L38.184 7.2195Z" fill="#5E8E3E"/>
<path d="M49.8685 17.4016C49.2009 17.047 48.8556 16.7406 48.8556 16.3211C48.8556 15.7892 49.3245 15.4457 50.0859 15.4457C50.6511 15.4578 51.2084 15.5785 51.7271 15.8011L52.3427 13.949C52.3427 13.949 51.7783 13.5168 50.1243 13.5168C47.8172 13.5168 46.2143 14.8252 46.2143 16.6638C46.2143 17.7038 46.9578 18.504 47.957 19.0747C48.7644 19.5389 49.0483 19.8462 49.0483 20.3307C49.0483 20.8153 48.651 21.2196 47.8948 21.2196C46.7804 21.2196 45.7292 20.649 45.7292 20.649L45.0761 22.501C45.0761 22.501 46.0506 23.1476 47.6782 23.1476C50.0484 23.1476 51.7536 21.9929 51.7536 19.9061C51.7663 18.7767 50.9069 17.9899 49.8779 17.3931L49.8685 17.4016ZM59.3271 13.5058C58.1607 13.5058 57.2382 14.052 56.5323 14.8953L56.4931 14.8826L57.5059 9.63544H54.8672L52.3035 22.9982H54.9439L55.8281 18.4297C56.1742 16.7043 57.0754 15.6373 57.9169 15.6373C58.5052 15.6373 58.7371 16.0307 58.7371 16.6022C58.7371 16.9905 58.6979 17.3762 58.622 17.7569L57.6227 22.9856H60.2632L61.3016 17.5831C61.415 17.0234 61.4807 16.4553 61.4935 15.8863C61.4807 14.4141 60.6989 13.5261 59.3279 13.5261L59.3271 13.5058ZM67.4522 13.5058C64.2738 13.5058 62.1713 16.3489 62.1713 19.4993C62.1713 21.5303 63.4399 23.1544 65.8118 23.1544C68.9297 23.1544 71.0416 20.3873 71.0416 17.161C71.0416 15.2828 69.9272 13.5058 67.4565 13.5058H67.4522ZM66.1563 21.158C65.2585 21.158 64.8748 20.3983 64.8748 19.4613C64.8748 17.9638 65.6541 15.5149 67.0933 15.5149C68.0285 15.5149 68.3406 16.3143 68.3406 17.0892C68.3372 18.6973 67.5562 21.158 66.158 21.158H66.1563ZM77.794 13.5058C76.0036 13.5058 74.9993 15.0489 74.9993 15.0489H74.9601L75.1161 13.6595H72.7774L72.2403 17.1247L70.4073 26.6939H73.0358L73.7673 22.8226H73.8184C73.8184 22.8226 74.3556 23.1654 75.3702 23.1654C78.4719 23.1654 80.4967 20.0184 80.4967 16.8377C80.5095 15.0861 79.7175 13.5134 77.7923 13.5134L77.794 13.5058ZM75.2687 21.196C74.8703 21.2038 74.4825 21.0683 74.1774 20.8144L74.6139 18.3647C74.926 16.7398 75.7802 15.6483 76.7027 15.6483C77.5101 15.6483 77.7531 16.3844 77.7531 17.0833C77.7574 18.786 76.7471 21.1968 75.2721 21.1968L75.2687 21.196ZM84.2805 9.7494C83.8764 9.74687 83.4876 9.90557 83.2037 10.19C82.9198 10.4745 82.7621 10.8603 82.7774 11.2604C82.7774 12.032 83.2779 12.5688 84.0247 12.5688H84.064C84.2677 12.5769 84.4709 12.5434 84.6611 12.4707C84.8513 12.3979 85.0244 12.2873 85.1697 12.1457C85.315 12.0041 85.4295 11.8345 85.5061 11.6474C85.5826 11.4603 85.6196 11.2596 85.6148 11.0578C85.6148 10.2981 85.1016 9.7494 84.2933 9.7494H84.2805ZM80.5922 22.9729H83.2327L85.0265 13.7127H82.3767L80.5922 22.9729ZM91.7551 13.7H89.911L90.0014 13.2678C90.1574 12.3789 90.6937 11.5795 91.5599 11.5795C91.8469 11.5796 92.1323 11.6223 92.4065 11.7061L92.9163 9.66077C92.9163 9.66077 92.4474 9.43285 91.4806 9.43285C90.5397 9.40968 89.6214 9.72014 88.8913 10.3082C87.9935 11.068 87.5698 12.1603 87.3566 13.2653L87.2714 13.6975H86.0411L85.6557 15.6643H86.886L85.4827 22.9746H88.1325L89.5358 15.6643H91.357L91.7151 13.6975L91.7551 13.7ZM98.1137 13.7127L95.7162 20.0834H95.677L95.0239 13.7127H92.2411L93.8312 22.2149C93.8694 22.3602 93.8511 22.5144 93.78 22.6471C93.4347 23.2776 92.9428 23.817 92.3443 24.2214C91.8856 24.5337 91.3851 24.7819 90.8574 24.9575L91.5889 27.1776C92.5561 26.9213 93.444 26.4314 94.1731 25.7518C95.3778 24.6342 96.4921 22.9088 97.6345 20.5603L100.864 13.7076H98.1128L98.1137 13.7127Z" fill="black"/>
</svg>
