<svg width="135" height="38" viewBox="0 0 135 38" fill="none" xmlns="http://www.w3.org/2000/svg">
<g clip-path="url(#clip0_0_405)">
<path fill-rule="evenodd" clip-rule="evenodd" d="M47.8038 26.5142L49.1577 23.3396C50.6202 24.443 52.5687 25.0166 54.4912 25.0166C55.9102 25.0166 56.8086 24.4649 56.8086 23.6286C56.7869 21.2903 48.3072 23.1206 48.2421 17.2575C48.2204 14.28 50.8415 11.9855 54.5563 11.9855C56.7652 11.9855 58.9697 12.5372 60.545 13.7939L59.2778 17.0342C57.8371 16.1059 56.0448 15.4447 54.3393 15.4447C53.1806 15.4447 52.4168 15.9964 52.4168 16.7014C52.4385 18.9959 60.9833 17.7392 61.0701 23.3396C61.0701 26.3828 58.514 28.524 54.8427 28.524C52.1521 28.5196 49.6828 27.8803 47.8038 26.5142ZM99.7972 22.1924C99.1202 23.3834 97.853 24.1978 96.3862 24.1978C94.2207 24.1978 92.4762 22.4332 92.4762 20.2526C92.4762 18.072 94.2251 16.3073 96.3862 16.3073C97.8487 16.3073 99.1202 17.1218 99.7972 18.3128L103.534 16.2198C102.136 13.7064 99.4457 11.9855 96.3862 11.9855C91.86 11.9855 88.1886 15.6899 88.1886 20.2569C88.1886 24.824 91.86 28.5284 96.3862 28.5284C99.4674 28.5284 102.136 26.8294 103.534 24.2941L99.7972 22.1924ZM62.9492 5.12402H67.6273V28.2131H62.9492V5.12402ZM105.369 5.12402V28.2131H110.047V21.286L115.598 28.2131H121.587L114.526 19.9855L121.061 12.3095H115.333L110.043 18.6806V5.12402H105.369Z" fill="black"/>
<path d="M81.5269 22.2362C80.8499 23.3616 79.4525 24.1979 77.8772 24.1979C75.7118 24.1979 73.9672 22.4333 73.9672 20.2526C73.9672 18.072 75.7161 16.3074 77.8772 16.3074C79.4525 16.3074 80.8499 17.1875 81.5269 18.3348V22.2362ZM81.5269 12.314V14.1881C80.7631 12.8876 78.8623 11.9812 76.8704 11.9812C72.7608 11.9812 69.5277 15.6418 69.5277 20.2308C69.5277 24.8197 72.7608 28.5241 76.8704 28.5241C78.858 28.5241 80.7588 27.6221 81.5269 26.3172V28.1913H86.205V12.314H81.5269Z" fill="black"/>
<path fill-rule="evenodd" clip-rule="evenodd" d="M18.8906 22.2139C18.8906 23.8252 17.6017 25.1257 16.0047 25.1257C14.4077 25.1257 13.1188 23.8209 13.1188 22.2139C13.1188 20.6069 14.4077 19.302 16.0047 19.302H18.8906V22.2139ZM20.3313 22.2139C20.3313 20.6025 21.6202 19.302 23.2172 19.302C24.8142 19.302 26.1031 20.6025 26.1031 22.2139V29.4913C26.1031 31.1027 24.8142 32.4032 23.2172 32.4032C21.6202 32.4032 20.3313 31.1027 20.3313 29.4913V22.2139Z" fill="#E01E5A"/>
<path fill-rule="evenodd" clip-rule="evenodd" d="M23.2164 10.5273C21.6194 10.5273 20.3305 9.22686 20.3305 7.61548C20.3305 6.0041 21.6194 4.70361 23.2164 4.70361C24.8134 4.70361 26.1022 6.0041 26.1022 7.61548V10.5273H23.2164ZM23.2164 12.003C24.8134 12.003 26.1022 13.3035 26.1022 14.9148C26.1022 16.5262 24.8134 17.8267 23.2164 17.8267H15.9822C14.3852 17.8267 13.0963 16.5218 13.0963 14.9148C13.0963 13.3078 14.3852 12.003 15.9822 12.003H23.2164Z" fill="#36C5F0"/>
<path fill-rule="evenodd" clip-rule="evenodd" d="M34.7764 14.9148C34.7764 13.3035 36.0653 12.003 37.6623 12.003C39.2593 12.003 40.5482 13.3035 40.5482 14.9148C40.5482 16.5262 39.2593 17.8267 37.6623 17.8267H34.7764V14.9148ZM33.3356 14.9148C33.3356 16.5262 32.0468 17.8267 30.4498 17.8267C28.8528 17.8267 27.5639 16.5262 27.5639 14.9148V7.61548C27.5639 6.0041 28.8528 4.70361 30.4498 4.70361C32.0468 4.70361 33.3356 6.0041 33.3356 7.61548V14.9148Z" fill="#2EB67D"/>
<path fill-rule="evenodd" clip-rule="evenodd" d="M30.4498 26.5795C32.0468 26.5795 33.3356 27.88 33.3356 29.4913C33.3356 31.1027 32.0468 32.4032 30.4498 32.4032C28.8528 32.4032 27.5639 31.1027 27.5639 29.4913V26.5795H30.4498ZM30.4498 25.1257C28.8528 25.1257 27.5639 23.8252 27.5639 22.2139C27.5639 20.6025 28.8528 19.302 30.4498 19.302H37.684C39.281 19.302 40.5699 20.6025 40.5699 22.2139C40.5699 23.8252 39.281 25.1257 37.684 25.1257H30.4498Z" fill="#ECB22E"/>
</g>
<defs>
<clipPath id="clip0_0_405">
<rect width="108.491" height="27.6999" fill="white" transform="translate(13.0946 4.70337)"/>
</clipPath>
</defs>
</svg>
