<svg width="1440" height="73" viewBox="0 0 1440 73" fill="none" xmlns="http://www.w3.org/2000/svg">
<g clip-path="url(#clip0_0_384)">
<path d="M131.802 30.1071H126.921C126.81 30.1071 126.699 30.2182 126.699 30.3294V33.1633C126.699 33.2745 126.81 33.3856 126.921 33.3856H131.802C131.913 33.3856 132.024 33.2745 132.024 33.1633V30.3294C132.08 30.2182 131.969 30.1071 131.802 30.1071ZM131.747 34.3303H122.317C122.206 34.3303 122.039 34.4414 121.984 34.5525L120.764 39.1647L120.708 39.387L119.266 34.4414C119.21 34.3303 119.099 34.2191 118.933 34.2191H115.272C115.161 34.2191 114.995 34.3303 114.939 34.4414L113.552 39.0536L113.497 39.2758L113.441 39.1647L112.887 36.8864L112.276 34.6081C112.221 34.497 112.11 34.3858 111.944 34.3858H104.566V30.3849C104.566 30.2738 104.399 30.1071 104.233 30.1626L99.5735 31.6074C99.407 31.663 99.3516 31.7186 99.3516 31.8297V34.3303H98.1312C98.0203 34.3303 97.9093 34.4414 97.9093 34.5525V38.1089C97.9093 38.2201 98.0203 38.3312 98.1312 38.3312H99.3516V42.6655C99.3516 45.7218 101.016 47.1666 104.067 47.1666C105.343 47.1666 106.563 46.8887 107.395 46.4442V42.7767C107.395 42.61 107.229 42.5544 107.118 42.5544C106.618 42.7767 106.23 42.8322 105.786 42.8322C104.954 42.8322 104.51 42.4988 104.51 41.5541V38.3868H107.173C107.284 38.3868 107.395 38.2756 107.395 38.1645V35.1638L110.89 46.7776C110.945 46.8887 111.056 46.9999 111.223 46.9999H115.106C115.216 46.9999 115.383 46.8887 115.438 46.7776L117.103 41.6097L117.935 44.277L118.711 46.722C118.767 46.8332 118.878 46.9443 119.044 46.9443H122.927C123.038 46.9443 123.204 46.8332 123.26 46.722L126.81 35.0527V46.722C126.81 46.8332 126.921 46.9443 127.032 46.9443H131.747C131.858 46.9443 131.969 46.8332 131.969 46.722V34.6081C131.969 34.4414 131.858 34.3303 131.747 34.3303ZM137.96 30.1071H133.245C133.134 30.1071 133.023 30.2182 133.023 30.3294V46.722C133.023 46.8332 133.134 46.9443 133.245 46.9443H137.96C138.071 46.9443 138.182 46.8332 138.182 46.722V30.3294C138.182 30.2182 138.071 30.1071 137.96 30.1071ZM144.228 30.1071H139.347C139.236 30.1071 139.125 30.2182 139.125 30.3294V33.1633C139.125 33.2745 139.236 33.3856 139.347 33.3856H144.228C144.339 33.3856 144.45 33.2745 144.45 33.1633V30.3294C144.506 30.2182 144.395 30.1071 144.228 30.1071ZM144.173 34.3303H139.458C139.347 34.3303 139.236 34.4414 139.236 34.5525V46.722C139.236 46.8332 139.347 46.9443 139.458 46.9443H144.173C144.284 46.9443 144.395 46.8332 144.395 46.722V34.6081C144.395 34.4414 144.284 34.3303 144.173 34.3303ZM151.994 34.0524C147.834 34.0524 144.894 37.1087 144.894 40.6651V40.7206C144.894 44.277 147.834 47.2777 151.939 47.2777C156.099 47.2777 159.039 44.2214 159.039 40.6651V40.6095C159.039 37.0531 156.099 34.0524 151.994 34.0524ZM153.991 40.6651C153.991 41.8876 153.159 42.8322 151.994 42.8322C150.829 42.8322 149.942 41.832 149.942 40.6095V40.5539C149.942 39.3314 150.774 38.3868 151.939 38.3868C153.104 38.3868 153.991 39.387 153.991 40.6651ZM80.7131 24.6614C73.058 24.6614 66.8452 30.885 66.8452 38.5535C66.8452 46.2219 73.058 52.4455 80.7131 52.4455C88.3682 52.4455 94.581 46.2219 94.581 38.5535C94.581 30.885 88.3682 24.6614 80.7131 24.6614ZM80.7131 48.778C75.055 48.778 70.5063 44.2214 70.5063 38.5535C70.5063 32.8855 75.055 28.3289 80.7131 28.3289C86.3712 28.3289 90.9199 32.8855 90.9199 38.5535C90.9199 44.2214 86.3712 48.778 80.7131 48.778Z" fill="#F12E45"/>
<path d="M84.1523 37.9979C85.7453 37.9979 87.0368 36.7041 87.0368 35.1083C87.0368 33.5124 85.7453 32.2188 84.1523 32.2188C82.5592 32.2188 81.2677 33.5124 81.2677 35.1083C81.2677 36.7041 82.5592 37.9979 84.1523 37.9979Z" fill="#F12E45"/>
<path d="M84.1523 44.8877C85.7453 44.8877 87.0368 43.5941 87.0368 41.9982C87.0368 40.4023 85.7453 39.1086 84.1523 39.1086C82.5592 39.1086 81.2677 40.4023 81.2677 41.9982C81.2677 43.5941 82.5592 44.8877 84.1523 44.8877Z" fill="#F12E45"/>
<path d="M77.2746 44.8877C78.8677 44.8877 80.1591 43.5941 80.1591 41.9982C80.1591 40.4023 78.8677 39.1086 77.2746 39.1086C75.6815 39.1086 74.3901 40.4023 74.3901 41.9982C74.3901 43.5941 75.6815 44.8877 77.2746 44.8877Z" fill="#F12E45"/>
<path d="M77.2746 37.9979C78.8677 37.9979 80.1591 36.7041 80.1591 35.1083C80.1591 33.5124 78.8677 32.2188 77.2746 32.2188C75.6815 32.2188 74.3901 33.5124 74.3901 35.1083C74.3901 36.7041 75.6815 37.9979 77.2746 37.9979Z" fill="#F12E45"/>
</g>
<g clip-path="url(#clip1_0_384)">
<path opacity="0.4" d="M254.904 34.8088V42.0426H261.974V49.2594H269.061V34.8088H254.904Z" fill="#00B2E3"/>
<path d="M280.1 46.2637L283.184 43.7957C284.052 45.3276 285.436 46.2127 287.02 46.2127C288.737 46.2127 289.654 45.0723 289.654 43.8298C289.654 42.349 287.887 41.8724 286.002 41.2767C283.635 40.5277 280.983 39.5916 280.983 36.1364C280.983 33.2429 283.451 30.9451 286.87 30.9451C289.754 30.9451 291.405 32.0514 292.839 33.5663L290.054 35.7109C289.321 34.6045 288.287 34.0088 286.903 34.0088C285.336 34.0088 284.485 34.8769 284.485 36.0172C284.485 37.3959 286.186 37.8725 288.07 38.5193C290.471 39.3193 293.189 40.3916 293.189 43.8638C293.189 46.7403 290.955 49.4977 287.053 49.4977C283.835 49.5147 281.7 48.119 280.1 46.2637ZM307.213 36.8853H310.514V38.264C311.298 37.2427 312.482 36.63 313.866 36.63C316.717 36.63 318.451 38.5023 318.451 41.7022V49.2424H315.083V42.1617C315.083 40.5107 314.333 39.5405 312.849 39.5405C311.581 39.5405 310.547 40.4256 310.547 42.5021V49.2594H307.229V36.8853H307.213ZM319.202 43.0809C319.202 38.7065 322.353 36.647 325.088 36.647C326.655 36.647 327.906 37.2427 328.706 38.1108V31.2004H332.024V49.2594H328.706V47.8807C327.906 48.8509 326.622 49.5147 325.054 49.5147C322.487 49.5147 319.202 47.4211 319.202 43.0809ZM328.806 43.0468C328.806 41.2086 327.506 39.7278 325.705 39.7278C323.87 39.7278 322.453 41.1405 322.453 43.0468C322.453 44.9531 323.854 46.3829 325.705 46.3829C327.489 46.3829 328.806 44.885 328.806 43.0468ZM332.808 40.2384C332.808 35.0981 336.61 30.9621 341.846 30.9621C344.464 30.9621 346.665 31.9323 348.265 33.4641C348.916 34.0939 349.466 34.8088 349.9 35.5917L346.948 37.43C345.864 35.3705 344.18 34.3152 341.879 34.3152C338.661 34.3152 336.16 37.0044 336.16 40.2554C336.16 43.5745 338.611 46.1956 341.996 46.1956C344.564 46.1956 346.381 44.7148 347.015 42.417H341.462V39.098H350.65V40.4767C350.65 45.3276 347.265 49.4977 341.996 49.4977C336.46 49.5147 332.808 45.2255 332.808 40.2384ZM351.484 36.8853H354.785V38.9108C355.385 37.6172 356.486 36.8853 358.137 36.8853H359.471L358.254 40.1873H357.353C355.586 40.1873 354.802 41.1235 354.802 43.4213V49.2594H351.484V36.8853ZM360.321 36.8853H363.639V49.2594H360.321V40.1873H359.121L360.321 36.8853ZM361.989 35.013C363.089 35.013 363.973 34.1109 363.973 32.9876C363.973 31.8642 363.089 30.9621 361.989 30.9621C360.888 30.9621 360.004 31.8642 360.004 32.9876C360.004 34.0939 360.888 35.013 361.989 35.013ZM364.423 43.0809C364.423 38.7065 367.575 36.647 370.309 36.647C371.877 36.647 373.127 37.2427 373.928 38.1108V31.2004H377.246V49.2594H373.928V47.8807C373.127 48.8509 371.843 49.5147 370.276 49.5147C367.691 49.5147 364.423 47.4211 364.423 43.0809ZM374.028 43.0468C374.028 41.2086 372.727 39.7278 370.926 39.7278C369.092 39.7278 367.675 41.1405 367.675 43.0468C367.675 44.9531 369.075 46.3829 370.926 46.3829C372.71 46.3829 374.028 44.885 374.028 43.0468ZM306.429 43.0468C306.429 39.4895 303.878 36.647 300.176 36.647C296.691 36.647 293.873 39.5235 293.873 43.0809C293.873 46.6382 296.491 49.5147 300.276 49.5147C302.894 49.5147 304.778 48.2211 305.829 46.3829L303.194 44.7829C302.644 45.8723 301.56 46.5531 300.293 46.5531C298.542 46.5531 297.458 45.668 297.074 44.3063H306.429V43.0468ZM297.224 41.566C297.741 40.4086 298.792 39.6086 300.209 39.6086C301.61 39.6086 302.66 40.2724 303.094 41.566H297.224Z" fill="#243746"/>
<path d="M254.904 42.0425H261.974V49.2593H254.904V42.0425Z" fill="#1A82E2"/>
<path d="M269.06 34.8086V27.5918H261.973V42.0424H276.13V34.8086H269.06Z" fill="#00B2E3"/>
<path d="M269.061 27.5918H276.131V34.8086H269.061V27.5918Z" fill="#1A82E2"/>
</g>
<g clip-path="url(#clip2_0_384)">
<path d="M493.313 36.8916H486.234C486.146 36.8917 486.062 36.927 486 36.9899C485.938 37.0527 485.903 37.138 485.903 37.2268V40.7337C485.903 40.8227 485.938 40.9079 486 40.9709C486.062 41.0338 486.146 41.0693 486.234 41.0695H488.995V45.4263C488.995 45.4263 488.375 45.6406 486.661 45.6406C484.638 45.6406 481.813 44.8916 481.813 38.5966C481.813 32.3004 484.755 31.4718 487.517 31.4718C489.908 31.4718 490.938 31.8985 491.594 32.1038C491.8 32.1678 491.99 31.9602 491.99 31.7748L492.78 28.3867C492.78 28.3001 492.751 28.1956 492.653 28.1247C492.387 27.9324 490.763 27.0117 486.661 27.0117C481.935 27.0117 477.087 29.0491 477.087 38.8421C477.087 48.6358 482.638 50.095 487.315 50.095C491.187 50.095 493.536 48.4183 493.536 48.4183C493.633 48.3639 493.644 48.2268 493.644 48.1639V37.2267C493.644 37.0418 493.496 36.8916 493.313 36.8916ZM529.796 28.1851C529.796 28.1411 529.788 28.0975 529.772 28.0567C529.756 28.0159 529.731 27.9788 529.701 27.9475C529.67 27.9161 529.634 27.8912 529.594 27.8742C529.554 27.8572 529.511 27.8483 529.468 27.8481H525.481C525.438 27.8483 525.395 27.8571 525.355 27.8742C525.315 27.8912 525.278 27.9161 525.247 27.9474C525.217 27.9786 525.192 28.0158 525.176 28.0565C525.159 28.0973 525.151 28.141 525.151 28.1851L525.152 35.99H518.939V28.1851C518.94 28.1411 518.931 28.0974 518.915 28.0566C518.899 28.0158 518.874 27.9787 518.844 27.9474C518.813 27.9161 518.777 27.8912 518.737 27.8742C518.697 27.8572 518.654 27.8483 518.61 27.8481H514.624C514.537 27.8486 514.453 27.8844 514.391 27.9476C514.329 28.0108 514.295 28.0962 514.295 28.1851V49.3185C514.295 49.5047 514.443 49.6564 514.624 49.6564H518.61C518.793 49.6564 518.939 49.5046 518.939 49.3185V40.2789H525.152L525.141 49.3185C525.141 49.5047 525.289 49.6564 525.472 49.6564H529.467C529.65 49.6564 529.796 49.5046 529.796 49.3185V28.1851ZM500.835 30.9585C500.835 29.5041 499.684 28.3289 498.264 28.3289C496.846 28.3289 495.694 29.5041 495.694 30.9585C495.694 32.4111 496.846 33.5893 498.264 33.5893C499.684 33.5893 500.835 32.4111 500.835 30.9585ZM500.55 44.8605V35.1054C500.55 35.0165 500.515 34.9311 500.454 34.8679C500.392 34.8048 500.308 34.7691 500.22 34.7686H496.247C496.064 34.7686 495.901 34.9591 495.901 35.1445V49.1205C495.901 49.5314 496.154 49.6533 496.481 49.6533H500.061C500.453 49.6533 500.55 49.4578 500.55 49.1141V44.8605ZM544.944 34.8004H540.989C540.808 34.8004 540.66 34.9518 540.66 35.1383V45.5006C540.66 45.5006 539.655 46.2456 538.229 46.2456C536.803 46.2456 536.424 45.59 536.424 44.175V35.1383C536.424 34.9518 536.277 34.8004 536.095 34.8004H532.081C531.9 34.8004 531.751 34.9518 531.751 35.1383V44.8591C531.751 49.0618 534.063 50.09 537.243 50.09C539.852 50.09 541.956 48.6298 541.956 48.6298C541.956 48.6298 542.056 49.3992 542.101 49.4905C542.147 49.5815 542.265 49.6734 542.392 49.6734L544.946 49.662C545.127 49.662 545.276 49.5103 545.276 49.3247L545.275 35.1385C545.275 34.9518 545.127 34.8004 544.944 34.8004ZM554.195 46.2328C552.823 46.1905 551.893 45.5596 551.893 45.5596V38.8673C551.893 38.8673 552.81 38.2972 553.937 38.1951C555.361 38.0659 556.734 38.5019 556.734 41.9445C556.734 45.5749 556.114 46.2913 554.195 46.2328ZM555.755 34.3259C553.509 34.3259 551.981 35.3414 551.981 35.3414V28.1853C551.981 27.9987 551.833 27.8481 551.652 27.8481H547.654C547.611 27.8483 547.568 27.8572 547.528 27.8743C547.488 27.8914 547.451 27.9163 547.421 27.9476C547.39 27.9789 547.366 28.016 547.35 28.0568C547.333 28.0976 547.325 28.1412 547.325 28.1853V49.3185C547.325 49.5047 547.473 49.6564 547.655 49.6564H550.428C550.553 49.6564 550.648 49.5911 550.718 49.477C550.787 49.3634 550.886 48.5027 550.886 48.5027C550.886 48.5027 552.521 50.0721 555.615 50.0721C559.247 50.0721 561.33 48.2052 561.33 41.6912C561.33 35.177 558.003 34.3259 555.755 34.3259ZM512.006 34.7668H509.016L509.011 30.7644C509.011 30.613 508.934 30.5373 508.761 30.5373H504.687C504.528 30.5373 504.443 30.608 504.443 30.7621V34.8982C504.443 34.8982 502.401 35.3974 502.263 35.4379C502.194 35.4582 502.134 35.5005 502.091 35.5586C502.048 35.6167 502.025 35.6874 502.025 35.76V38.359C502.025 38.546 502.172 38.6964 502.354 38.6964H504.443V44.9487C504.443 49.5929 507.658 50.0491 509.828 50.0491C510.819 50.0491 512.005 49.7267 512.201 49.6532C512.319 49.6091 512.388 49.4848 512.388 49.3501L512.391 46.4911C512.391 46.3045 512.236 46.1539 512.061 46.1539C511.887 46.1539 511.441 46.2257 510.982 46.2257C509.513 46.2257 509.016 45.5338 509.016 44.6382L509.015 38.6962H512.006C512.188 38.6962 512.335 38.5456 512.335 38.3588V35.1033C512.336 35.0592 512.327 35.0156 512.311 34.9748C512.294 34.934 512.27 34.897 512.239 34.8657C512.209 34.8345 512.172 34.8096 512.132 34.7927C512.092 34.7757 512.049 34.7669 512.006 34.7668Z" fill="#121110"/>
</g>
<g clip-path="url(#clip3_0_384)">
<path fill-rule="evenodd" clip-rule="evenodd" d="M702.804 46.5142L704.158 43.3396C705.62 44.443 707.569 45.0166 709.491 45.0166C710.91 45.0166 711.809 44.4649 711.809 43.6286C711.787 41.2903 703.307 43.1206 703.242 37.2575C703.22 34.28 705.842 31.9855 709.556 31.9855C711.765 31.9855 713.97 32.5372 715.545 33.7939L714.278 37.0342C712.837 36.1059 711.045 35.4447 709.339 35.4447C708.181 35.4447 707.417 35.9964 707.417 36.7014C707.439 38.9959 715.983 37.7392 716.07 43.3396C716.07 46.3828 713.514 48.524 709.843 48.524C707.152 48.5196 704.683 47.8803 702.804 46.5142ZM754.797 42.1924C754.12 43.3834 752.853 44.1978 751.386 44.1978C749.221 44.1978 747.476 42.4332 747.476 40.2526C747.476 38.072 749.225 36.3073 751.386 36.3073C752.849 36.3073 754.12 37.1218 754.797 38.3128L758.534 36.2198C757.136 33.7064 754.446 31.9855 751.386 31.9855C746.86 31.9855 743.189 35.6899 743.189 40.2569C743.189 44.824 746.86 48.5284 751.386 48.5284C754.467 48.5284 757.136 46.8294 758.534 44.2941L754.797 42.1924ZM717.949 25.124H722.627V48.2131H717.949V25.124ZM760.369 25.124V48.2131H765.047V41.286L770.598 48.2131H776.587L769.526 39.9855L776.061 32.3095H770.333L765.043 38.6806V25.124H760.369Z" fill="black"/>
<path d="M736.527 42.2362C735.85 43.3616 734.453 44.1979 732.877 44.1979C730.712 44.1979 728.967 42.4333 728.967 40.2526C728.967 38.072 730.716 36.3074 732.877 36.3074C734.453 36.3074 735.85 37.1875 736.527 38.3348V42.2362ZM736.527 32.314V34.1881C735.763 32.8876 733.862 31.9812 731.87 31.9812C727.761 31.9812 724.528 35.6418 724.528 40.2308C724.528 44.8197 727.761 48.5241 731.87 48.5241C733.858 48.5241 735.759 47.6221 736.527 46.3172V48.1913H741.205V32.314H736.527Z" fill="black"/>
<path fill-rule="evenodd" clip-rule="evenodd" d="M673.891 42.2139C673.891 43.8252 672.602 45.1257 671.005 45.1257C669.408 45.1257 668.119 43.8209 668.119 42.2139C668.119 40.6069 669.408 39.302 671.005 39.302H673.891V42.2139ZM675.331 42.2139C675.331 40.6025 676.62 39.302 678.217 39.302C679.814 39.302 681.103 40.6025 681.103 42.2139V49.4913C681.103 51.1027 679.814 52.4032 678.217 52.4032C676.62 52.4032 675.331 51.1027 675.331 49.4913V42.2139Z" fill="#E01E5A"/>
<path fill-rule="evenodd" clip-rule="evenodd" d="M678.216 30.5273C676.619 30.5273 675.33 29.2269 675.33 27.6155C675.33 26.0041 676.619 24.7036 678.216 24.7036C679.813 24.7036 681.102 26.0041 681.102 27.6155V30.5273H678.216ZM678.216 32.003C679.813 32.003 681.102 33.3035 681.102 34.9148C681.102 36.5262 679.813 37.8267 678.216 37.8267H670.982C669.385 37.8267 668.096 36.5218 668.096 34.9148C668.096 33.3078 669.385 32.003 670.982 32.003H678.216Z" fill="#36C5F0"/>
<path fill-rule="evenodd" clip-rule="evenodd" d="M689.776 34.9148C689.776 33.3035 691.065 32.003 692.662 32.003C694.259 32.003 695.548 33.3035 695.548 34.9148C695.548 36.5262 694.259 37.8267 692.662 37.8267H689.776V34.9148ZM688.336 34.9148C688.336 36.5262 687.047 37.8267 685.45 37.8267C683.853 37.8267 682.564 36.5262 682.564 34.9148V27.6155C682.564 26.0041 683.853 24.7036 685.45 24.7036C687.047 24.7036 688.336 26.0041 688.336 27.6155V34.9148Z" fill="#2EB67D"/>
<path fill-rule="evenodd" clip-rule="evenodd" d="M685.45 46.5795C687.047 46.5795 688.336 47.88 688.336 49.4913C688.336 51.1027 687.047 52.4032 685.45 52.4032C683.853 52.4032 682.564 51.1027 682.564 49.4913V46.5795H685.45ZM685.45 45.1257C683.853 45.1257 682.564 43.8252 682.564 42.2139C682.564 40.6025 683.853 39.302 685.45 39.302H692.684C694.281 39.302 695.57 40.6025 695.57 42.2139C695.57 43.8252 694.281 45.1257 692.684 45.1257H685.45Z" fill="#ECB22E"/>
</g>
<g clip-path="url(#clip4_0_384)">
<path d="M908.675 38.4958C908.675 34.5803 908.682 30.6618 908.666 26.7494C908.666 26.2051 909.036 25.8665 909.594 25.8665C910.628 25.8604 911.669 25.8574 912.702 25.8665C913.289 25.8725 913.631 26.2202 913.625 26.7554C913.609 30.2204 913.615 33.6914 913.615 37.1564V37.3468C913.621 37.7308 913.795 38.012 914.159 38.1632C914.509 38.3083 914.839 38.2327 915.124 37.9364C916.167 36.848 917.208 35.7565 918.245 34.665C918.881 33.9937 919.527 33.3316 920.157 32.6573C920.396 32.4034 920.673 32.2824 921.03 32.2885C922.331 32.2975 923.638 32.2975 924.939 32.2885C925.324 32.2885 925.628 32.4034 925.789 32.7511C925.954 33.1109 925.876 33.4314 925.6 33.7247C923.647 35.829 921.7 37.9364 919.75 40.0408C919.595 40.2101 919.443 40.3855 919.322 40.579C919.105 40.9207 919.105 41.2563 919.306 41.604C919.524 41.9789 919.831 42.2812 920.135 42.5866C922.498 44.951 924.867 47.3154 927.236 49.6738C927.522 49.961 927.606 50.2755 927.463 50.6443C927.326 50.989 927.056 51.1462 926.612 51.1462C925.165 51.1462 923.715 51.1402 922.268 51.1462C921.942 51.1462 921.691 51.0465 921.458 50.8046C919.356 48.6548 917.239 46.5172 915.127 44.3766C914.826 44.0682 914.491 43.9895 914.143 44.1316C913.792 44.2677 913.609 44.558 913.609 44.9782V50.2482C913.609 50.8167 913.314 51.11 912.737 51.113H909.557C908.921 51.113 908.672 50.8681 908.672 50.2573L908.675 38.4958ZM928.404 34.5561C928.404 31.965 928.413 29.3708 928.394 26.7796C928.388 26.193 928.739 25.8574 929.351 25.8574C930.357 25.8635 931.356 25.8574 932.359 25.8574C932.946 25.8574 933.281 26.1779 933.281 26.7463C933.288 28.2581 933.288 29.7729 933.291 31.2847C933.291 31.9377 933.635 32.2764 934.3 32.2764H938.476C938.917 32.2764 939.205 32.5092 939.292 32.9295C939.336 33.132 939.32 33.3346 939.326 33.5432V36.0497C939.326 36.7059 939.025 36.9991 938.351 36.9991C937.016 36.9991 935.681 36.9931 934.346 36.9931C933.663 36.9931 933.312 37.3287 933.306 37.9848C933.3 39.3182 933.278 40.6455 933.297 41.9789C933.325 44.0107 934.924 45.8823 937.001 46.36C937.613 46.5021 938.234 46.5263 938.854 46.4416C939.361 46.3721 939.727 46.6351 939.786 47.131C939.913 48.1862 940.028 49.2444 940.14 50.2997C940.183 50.7018 939.882 51.0706 939.457 51.1372C938.311 51.3276 937.165 51.2611 936.038 51.0132C932.015 50.1364 929.059 47.004 928.481 43.0341C928.422 42.641 928.404 42.248 928.404 41.858V34.5561ZM964.131 46.9375C964.131 46.5777 963.848 46.3267 963.479 46.3086C963.227 46.2995 962.979 46.2904 962.728 46.2693C961.442 46.1756 960.781 45.589 960.548 44.3554C960.368 43.4151 960.374 42.4596 960.368 41.5042C960.359 38.7619 960.362 36.0195 960.362 33.2772C960.362 33.1955 960.362 33.1199 960.355 33.0413C960.321 32.5969 959.992 32.2794 959.53 32.2794C958.446 32.2734 957.359 32.2734 956.276 32.2794C955.785 32.2794 955.437 32.6211 955.416 33.0927C955.409 33.2076 955.416 33.3255 955.416 33.4616C955.323 33.4132 955.251 33.38 955.183 33.3467C953.227 32.3459 951.153 32.0224 948.973 32.3762C943.425 33.2832 939.808 38.6953 941.186 44.0047C942.937 50.7411 951.23 53.423 956.779 49.0388C956.909 48.936 956.962 48.9391 957.064 49.0781C957.636 49.8733 958.39 50.4478 959.328 50.7955C960.362 51.1795 961.439 51.2309 962.532 51.1553C962.92 51.1281 963.305 51.0737 963.659 50.9013C963.91 50.7774 964.115 50.5929 964.122 50.3117C964.143 49.187 964.137 48.0622 964.131 46.9375ZM950.631 46.4507C947.933 46.4416 945.788 44.304 945.797 41.6251C945.806 39.0914 948.011 36.987 950.656 36.9931C953.37 36.9991 955.512 39.1217 955.506 41.8065C955.496 44.3372 953.276 46.4537 950.631 46.4507ZM896.557 32.2401C891.403 32.2492 886.926 36.1253 886.811 41.5102C886.693 47.0796 891.223 51.0646 896.281 51.1886C901.69 51.3216 906.17 47.1642 906.263 41.9124C906.353 36.5668 902.053 32.3006 896.557 32.2401ZM896.523 46.4507C893.862 46.4507 891.68 44.3221 891.673 41.7219C891.667 39.1186 893.847 36.9931 896.532 36.984C899.212 36.978 901.382 39.0975 901.382 41.7158C901.382 44.3342 899.212 46.4507 896.523 46.4507Z" fill="#00297A"/>
</g>
<g clip-path="url(#clip5_0_384)">
<path d="M1187.64 37.3448V35.2542H1185.06V32.0041L1184.97 32.031L1182.55 32.7771L1182.5 32.7917V35.2543H1178.68V33.8824C1178.68 33.2436 1178.82 32.7548 1179.1 32.4288C1179.38 32.1067 1179.78 31.9429 1180.28 31.9429C1180.65 31.9429 1181.02 32.0293 1181.4 32.1996L1181.5 32.2424V30.0407L1181.45 30.0242C1181.1 29.8961 1180.62 29.8315 1180.02 29.8315C1179.27 29.8315 1178.58 29.9963 1177.99 30.3229C1177.39 30.65 1176.92 31.1168 1176.59 31.7104C1176.27 32.3033 1176.1 32.9881 1176.1 33.7459V35.2542H1174.3V37.3448H1176.1V46.1521H1178.68V37.3448H1182.5V42.9417C1182.5 45.2467 1183.58 46.4148 1185.71 46.4148C1186.06 46.4148 1186.43 46.3736 1186.81 46.2927C1187.19 46.2097 1187.45 46.1268 1187.61 46.0382L1187.64 46.018V43.9081L1187.54 43.9779C1187.4 44.0717 1187.22 44.1484 1187.02 44.2055C1186.81 44.2635 1186.64 44.2926 1186.51 44.2926C1186.01 44.2926 1185.64 44.1573 1185.41 43.8901C1185.18 43.6206 1185.06 43.1492 1185.06 42.4899V37.3448H1187.64ZM1168.54 44.293C1167.61 44.293 1166.87 43.9806 1166.35 43.3654C1165.83 42.7471 1165.56 41.8656 1165.56 40.7455C1165.56 39.5899 1165.83 38.6855 1166.35 38.0563C1166.87 37.4312 1167.6 37.1139 1168.52 37.1139C1169.42 37.1139 1170.13 37.4169 1170.64 38.015C1171.15 38.6162 1171.41 39.5134 1171.41 40.6824C1171.41 41.8658 1171.17 42.7748 1170.69 43.3829C1170.21 43.9864 1169.49 44.293 1168.54 44.293ZM1168.66 34.9917C1166.87 34.9917 1165.46 35.5182 1164.44 36.5567C1163.43 37.5954 1162.92 39.0327 1162.92 40.8291C1162.92 42.5354 1163.42 43.9079 1164.41 44.9077C1165.39 45.9079 1166.74 46.4146 1168.4 46.4146C1170.13 46.4146 1171.52 45.8807 1172.53 44.8278C1173.54 43.7761 1174.05 42.3523 1174.05 40.5979C1174.05 38.8649 1173.57 37.4822 1172.62 36.489C1171.68 35.4953 1170.34 34.9917 1168.66 34.9917ZM1158.76 34.9917C1157.55 34.9917 1156.54 35.3043 1155.78 35.9208C1155 36.541 1154.61 37.3543 1154.61 38.3386C1154.61 38.8502 1154.7 39.3046 1154.86 39.6901C1155.03 40.0768 1155.29 40.4173 1155.63 40.7031C1155.98 40.9865 1156.5 41.2835 1157.2 41.5855C1157.79 41.8288 1158.23 42.0345 1158.51 42.1966C1158.78 42.3555 1158.97 42.5153 1159.08 42.6709C1159.18 42.8231 1159.24 43.0315 1159.24 43.2886C1159.24 44.0208 1158.69 44.377 1157.57 44.377C1157.16 44.377 1156.68 44.2896 1156.16 44.1174C1155.65 43.9477 1155.16 43.6993 1154.72 43.3807L1154.61 43.3034V45.8019L1154.65 45.8203C1155.02 45.9898 1155.48 46.1328 1156.02 46.2452C1156.56 46.3578 1157.05 46.4151 1157.48 46.4151C1158.8 46.4151 1159.86 46.1009 1160.63 45.4807C1161.41 44.8563 1161.81 44.0238 1161.81 43.0055C1161.81 42.2709 1161.59 41.641 1161.18 41.1329C1160.76 40.629 1160.04 40.1664 1159.03 39.7575C1158.23 39.4332 1157.71 39.164 1157.5 38.9574C1157.29 38.7577 1157.19 38.4754 1157.19 38.1179C1157.19 37.801 1157.32 37.5471 1157.58 37.3415C1157.85 37.1348 1158.22 37.0297 1158.68 37.0297C1159.11 37.0297 1159.55 37.098 1159.99 37.2319C1160.42 37.3657 1160.81 37.545 1161.13 37.7643L1161.23 37.8367V35.4667L1161.19 35.4492C1160.9 35.3217 1160.51 35.2126 1160.03 35.124C1159.56 35.0361 1159.14 34.9917 1158.76 34.9917ZM1147.89 44.293C1146.95 44.293 1146.22 43.9806 1145.7 43.3654C1145.17 42.7471 1144.91 41.8658 1144.91 40.7455C1144.91 39.5899 1145.17 38.6855 1145.7 38.0563C1146.22 37.4312 1146.95 37.1139 1147.87 37.1139C1148.76 37.1139 1149.47 37.4169 1149.98 38.015C1150.5 38.6162 1150.76 39.5134 1150.76 40.6824C1150.76 41.8658 1150.51 42.7748 1150.03 43.3829C1149.55 43.9864 1148.83 44.293 1147.89 44.293ZM1148 34.9917C1146.22 34.9917 1144.8 35.5182 1143.79 36.5567C1142.78 37.5954 1142.27 39.0327 1142.27 40.8291C1142.27 42.5361 1142.77 43.9079 1143.75 44.9077C1144.74 45.9079 1146.08 46.4146 1147.74 46.4146C1149.47 46.4146 1150.86 45.8807 1151.88 44.8278C1152.89 43.7761 1153.4 42.3523 1153.4 40.5979C1153.4 38.8649 1152.92 37.4822 1151.97 36.489C1151.02 35.4953 1149.69 34.9917 1148 34.9917ZM1138.35 37.1415V35.2542H1135.8V46.1518H1138.35V40.5773C1138.35 39.6294 1138.57 38.8506 1138.99 38.2625C1139.4 37.6813 1139.96 37.3868 1140.63 37.3868C1140.86 37.3868 1141.12 37.4248 1141.4 37.5002C1141.68 37.575 1141.88 37.6563 1141.99 37.7419L1142.1 37.82V35.2356L1142.06 35.2178C1141.82 35.1163 1141.49 35.0652 1141.06 35.0652C1140.42 35.0652 1139.85 35.2721 1139.36 35.6797C1138.93 36.0379 1138.62 36.529 1138.38 37.1415H1138.35ZM1131.24 34.9917C1130.07 34.9917 1129.03 35.2439 1128.15 35.741C1127.26 36.2392 1126.57 36.9506 1126.1 37.8551C1125.64 38.7575 1125.4 39.8115 1125.4 40.987C1125.4 42.0167 1125.63 42.9616 1126.08 43.7944C1126.54 44.6285 1127.18 45.2811 1127.99 45.7337C1128.8 46.1858 1129.74 46.415 1130.77 46.415C1131.98 46.415 1133.02 46.1714 1133.85 45.6911L1133.88 45.6717V43.3232L1133.77 43.4019C1133.4 43.6771 1132.98 43.8967 1132.53 44.0549C1132.08 44.213 1131.67 44.293 1131.31 44.293C1130.31 44.293 1129.5 43.9782 1128.92 43.3577C1128.34 42.7364 1128.04 41.8639 1128.04 40.7661C1128.04 39.6614 1128.35 38.7665 1128.96 38.1062C1129.56 37.4478 1130.37 37.1139 1131.35 37.1139C1132.18 37.1139 1133 37.3992 1133.77 37.9627L1133.88 38.0407V35.5662L1133.85 35.5466C1133.55 35.383 1133.16 35.2479 1132.67 35.1454C1132.18 35.0432 1131.7 34.9917 1131.24 34.9917ZM1123.65 35.2543H1121.1V46.1518H1123.65V35.2543ZM1122.4 30.6119C1121.98 30.6119 1121.61 30.7555 1121.31 31.0401C1121.01 31.3255 1120.86 31.6849 1120.86 32.109C1120.86 32.5264 1121.01 32.8792 1121.31 33.1571C1121.61 33.4341 1121.97 33.5745 1122.4 33.5745C1122.82 33.5745 1123.19 33.4341 1123.49 33.1575C1123.8 32.8792 1123.95 32.5265 1123.95 32.109C1123.95 31.6997 1123.8 31.3441 1123.51 31.0516C1123.21 30.7598 1122.84 30.6119 1122.4 30.6119ZM1116.04 34.4503V46.1518H1118.64V30.9455H1115.04L1110.47 42.2403L1106.03 30.9455H1102.29V46.1517H1104.73V34.4491H1104.82L1109.5 46.1518H1111.35L1115.96 34.4503H1116.04Z" fill="#706D6E"/>
<path d="M1081.5 37.9235H1069.51V25.8643H1081.5V37.9235Z" fill="#F1511B"/>
<path d="M1094.73 37.9235H1082.75V25.8643H1094.73V37.9235Z" fill="#80CC28"/>
<path d="M1081.5 51.2424H1069.51V39.1833H1081.5V51.2424Z" fill="#00ADEF"/>
<path d="M1094.73 51.2424H1082.75V39.1833H1094.73V51.2424Z" fill="#FBBC09"/>
</g>
<path fill-rule="evenodd" clip-rule="evenodd" d="M1359.3 34.6267C1359.63 35.2025 1359.74 35.8576 1359.78 36.5941L1359.83 37.5758V44.4402L1359.88 45.4229C1359.97 47.0277 1361.16 48.2144 1362.79 48.3153L1363.77 48.3637V37.5758L1363.82 36.5941C1363.86 35.8659 1363.97 35.1984 1364.31 34.6184C1364.65 34.0236 1365.15 33.5301 1365.75 33.1875C1366.35 32.8448 1367.03 32.6651 1367.72 32.6663C1368.41 32.6676 1369.09 32.8498 1369.69 33.1946C1370.29 33.5394 1370.78 34.0347 1371.13 34.6308C1371.46 35.2066 1371.57 35.8741 1371.61 36.5941L1371.66 37.5727V44.4402L1371.7 45.4229C1371.81 47.036 1372.99 48.2226 1374.62 48.3153L1375.6 48.3637V36.5941C1375.6 34.5129 1374.77 32.5169 1373.29 31.045C1371.81 29.5731 1369.81 28.7458 1367.71 28.745C1366.6 28.7438 1365.49 28.9804 1364.47 29.4388C1363.45 29.8973 1362.54 30.5671 1361.8 31.4036C1361.06 30.5675 1360.15 29.8978 1359.13 29.4392C1358.11 28.9806 1357.01 28.7436 1355.89 28.744C1354.25 28.744 1352.73 29.2384 1351.47 30.0923C1350.7 29.2394 1348.99 28.744 1348 28.744V48.3637L1348.99 48.3153C1350.64 48.2071 1351.83 47.0524 1351.89 45.4229L1351.94 44.4402V37.5758L1351.99 36.5941C1352.03 35.8535 1352.14 35.2025 1352.47 34.6226C1352.82 34.0281 1353.32 33.5347 1353.92 33.1916C1354.52 32.8486 1355.2 32.6678 1355.89 32.6675C1356.58 32.6676 1357.26 32.8487 1357.86 33.1926C1358.45 33.5365 1358.95 34.031 1359.3 34.6267ZM1291.82 48.3163L1292.81 48.3637H1307.59L1307.54 47.3851C1307.41 45.7721 1306.26 44.5937 1304.64 44.4886L1303.65 44.4402H1294.78L1306.61 32.6665L1306.56 31.6889C1306.48 30.0594 1305.28 28.882 1303.65 28.7924L1302.66 28.7481L1287.88 28.744L1287.93 29.7256C1288.06 31.3233 1289.22 32.5264 1290.84 32.6191L1291.82 32.6675H1300.69L1288.87 44.4412L1288.92 45.4229C1289.01 47.0401 1290.19 48.2113 1291.82 48.3153V48.3163ZM1344.13 31.6158C1345.05 32.5267 1345.77 33.6082 1346.27 34.7984C1346.76 35.9887 1347.02 37.2644 1347.02 38.5528C1347.02 39.8412 1346.76 41.1169 1346.27 42.3072C1345.77 43.4974 1345.05 44.5789 1344.13 45.4898C1342.28 47.3291 1339.77 48.3622 1337.16 48.3622C1334.55 48.3622 1332.04 47.3291 1330.19 45.4898C1326.34 41.659 1326.34 35.4466 1330.19 31.6158C1331.1 30.7052 1332.19 29.9828 1333.38 29.4899C1334.58 28.9969 1335.86 28.7431 1337.15 28.7429C1338.45 28.742 1339.73 28.9954 1340.93 29.4885C1342.13 29.9817 1343.21 30.7049 1344.13 31.6168V31.6158ZM1341.34 34.3939C1342.45 35.4981 1343.07 36.9953 1343.07 38.5564C1343.07 40.1175 1342.45 41.6147 1341.34 42.7189C1340.23 43.8223 1338.73 44.4422 1337.16 44.4422C1335.59 44.4422 1334.09 43.8223 1332.98 42.7189C1331.87 41.6147 1331.25 40.1175 1331.25 38.5564C1331.25 36.9953 1331.87 35.4981 1332.98 34.3939C1334.09 33.2905 1335.59 32.6706 1337.16 32.6706C1338.73 32.6706 1340.23 33.2905 1341.34 34.3939ZM1316.47 28.7429C1317.76 28.7433 1319.04 28.9972 1320.24 29.4903C1321.43 29.9834 1322.52 30.706 1323.43 31.6168C1327.28 35.4466 1327.28 41.66 1323.43 45.4898C1321.58 47.3291 1319.08 48.3622 1316.46 48.3622C1313.85 48.3622 1311.34 47.3291 1309.49 45.4898C1305.64 41.659 1305.64 35.4466 1309.49 31.6158C1310.41 30.7052 1311.49 29.9828 1312.69 29.4899C1313.88 28.9969 1315.16 28.7431 1316.46 28.7429H1316.47ZM1320.64 34.3918C1321.75 35.4961 1322.38 36.9935 1322.38 38.5549C1322.38 40.1162 1321.75 41.6136 1320.64 42.7179C1319.54 43.8213 1318.03 44.4411 1316.46 44.4411C1314.89 44.4411 1313.39 43.8213 1312.28 42.7179C1311.17 41.6136 1310.55 40.1164 1310.55 38.5554C1310.55 36.9943 1311.17 35.4971 1312.28 34.3929C1313.39 33.2894 1314.89 32.6696 1316.46 32.6696C1318.03 32.6696 1319.54 33.2894 1320.64 34.3929V34.3918Z" fill="#2D8CFF"/>
<rect x="1251.29" y="72.5752" width="71.8988" height="188.71" transform="rotate(-90 1251.29 72.5752)" fill="url(#paint0_linear_0_384)"/>
<rect width="71.8988" height="188.71" transform="matrix(4.37114e-08 -1 -1 -4.37114e-08 188.592 72.5752)" fill="url(#paint1_linear_0_384)"/>
<defs>
<linearGradient id="paint0_linear_0_384" x1="1287.8" y1="188.621" x2="1262.43" y2="89.0157" gradientUnits="userSpaceOnUse">
<stop stop-color="white"/>
<stop offset="1" stop-color="white" stop-opacity="0"/>
</linearGradient>
<linearGradient id="paint1_linear_0_384" x1="36.5143" y1="116.045" x2="11.1441" y2="16.4405" gradientUnits="userSpaceOnUse">
<stop stop-color="white"/>
<stop offset="1" stop-color="white" stop-opacity="0"/>
</linearGradient>
<clipPath id="clip0_0_384">
<rect width="92.2068" height="27.7842" fill="white" transform="translate(66.8381 24.6609)"/>
</clipPath>
<clipPath id="clip1_0_384">
<rect width="122.341" height="21.9291" fill="white" transform="translate(254.904 27.5886)"/>
</clipPath>
<clipPath id="clip2_0_384">
<rect width="84.254" height="23.0833" fill="white" transform="translate(477.08 27.0117)"/>
</clipPath>
<clipPath id="clip3_0_384">
<rect width="108.491" height="27.6999" fill="white" transform="translate(668.095 24.7034)"/>
</clipPath>
<clipPath id="clip4_0_384">
<rect width="77.329" height="25.3916" fill="white" transform="translate(886.809 25.8574)"/>
</clipPath>
<clipPath id="clip5_0_384">
<rect width="118.126" height="25.3916" fill="white" transform="translate(1069.51 25.8574)"/>
</clipPath>
</defs>
</svg>
