<svg width="116" height="33" viewBox="0 0 116 33" fill="none" xmlns="http://www.w3.org/2000/svg">
<g clip-path="url(#clip0_0_236)">
<path d="M74.3414 9.34769H70.1119C70.0158 9.34769 69.9197 9.444 69.9197 9.54029V11.9957C69.9197 12.092 70.0158 12.1883 70.1119 12.1883H74.3414C74.4375 12.1883 74.5336 12.092 74.5336 11.9957V9.54029C74.5817 9.444 74.4856 9.34769 74.3414 9.34769ZM74.2933 13.0068H66.1228C66.0266 13.0068 65.8825 13.1031 65.8344 13.1994L64.777 17.1955L64.729 17.3881L63.4793 13.1031C63.4313 13.0068 63.3352 12.9105 63.191 12.9105H60.0189C59.9227 12.9105 59.7786 13.0068 59.7305 13.1031L58.5289 17.0992L58.4809 17.2918L58.4328 17.1955L57.9522 15.2215L57.4235 13.2475C57.3754 13.1512 57.2793 13.0549 57.1351 13.0549H50.7429V9.58842C50.7429 9.49213 50.5987 9.34769 50.4545 9.39584L46.4173 10.6476C46.2731 10.6958 46.225 10.7439 46.225 10.8402V13.0068H45.1677C45.0715 13.0068 44.9754 13.1031 44.9754 13.1994V16.2807C44.9754 16.377 45.0715 16.4733 45.1677 16.4733H46.225V20.2287C46.225 22.8767 47.6669 24.1285 50.3103 24.1285C51.4157 24.1285 52.4731 23.8878 53.194 23.5026V20.325C53.194 20.1805 53.0499 20.1324 52.9537 20.1324C52.5212 20.325 52.1847 20.3731 51.8002 20.3731C51.0793 20.3731 50.6948 20.0842 50.6948 19.2658V16.5215H53.0018C53.0979 16.5215 53.194 16.4251 53.194 16.3289V13.729L56.222 23.7915C56.27 23.8878 56.3661 23.9841 56.5103 23.9841H59.8747C59.9708 23.9841 60.115 23.8878 60.1631 23.7915L61.6049 19.3139L62.3259 21.6249L62.9987 23.7433C63.0468 23.8396 63.1429 23.9359 63.2871 23.9359H66.6515C66.7476 23.9359 66.8918 23.8396 66.9398 23.7433L70.0158 13.6327V23.7433C70.0158 23.8396 70.1119 23.9359 70.2081 23.9359H74.2933C74.3895 23.9359 74.4856 23.8396 74.4856 23.7433V13.2475C74.4856 13.1031 74.3895 13.0068 74.2933 13.0068ZM79.6763 9.34769H75.591C75.4949 9.34769 75.3988 9.444 75.3988 9.54029V23.7433C75.3988 23.8396 75.4949 23.9359 75.591 23.9359H79.6763C79.7724 23.9359 79.8686 23.8396 79.8686 23.7433V9.54029C79.8686 9.444 79.7724 9.34769 79.6763 9.34769ZM85.1073 9.34769H80.8779C80.7817 9.34769 80.6856 9.444 80.6856 9.54029V11.9957C80.6856 12.092 80.7817 12.1883 80.8779 12.1883H85.1073C85.2034 12.1883 85.2996 12.092 85.2996 11.9957V9.54029C85.3476 9.444 85.2515 9.34769 85.1073 9.34769ZM85.0593 13.0068H80.974C80.8779 13.0068 80.7817 13.1031 80.7817 13.1994V23.7433C80.7817 23.8396 80.8779 23.9359 80.974 23.9359H85.0593C85.1554 23.9359 85.2515 23.8396 85.2515 23.7433V13.2475C85.2515 13.1031 85.1554 13.0068 85.0593 13.0068ZM91.836 12.7661C88.2314 12.7661 85.6841 15.4141 85.6841 18.4954V18.5436C85.6841 21.6249 88.2314 24.2248 91.788 24.2248C95.3926 24.2248 97.9399 21.5768 97.9399 18.4954V18.4473C97.9399 15.3659 95.3926 12.7661 91.836 12.7661ZM93.5663 18.4954C93.5663 19.5546 92.8453 20.3731 91.836 20.3731C90.8267 20.3731 90.0577 19.5065 90.0577 18.4473V18.3991C90.0577 17.3399 90.7787 16.5215 91.788 16.5215C92.7973 16.5215 93.5663 17.3881 93.5663 18.4954ZM30.0761 4.62939C23.4436 4.62939 18.0606 10.0217 18.0606 16.6659C18.0606 23.31 23.4436 28.7024 30.0761 28.7024C36.7087 28.7024 42.0917 23.31 42.0917 16.6659C42.0917 10.0217 36.7087 4.62939 30.0761 4.62939ZM30.0761 25.5247C25.1738 25.5247 21.2327 21.5768 21.2327 16.6659C21.2327 11.755 25.1738 7.80703 30.0761 7.80703C34.9785 7.80703 38.9196 11.755 38.9196 16.6659C38.9196 21.5768 34.9785 25.5247 30.0761 25.5247Z" fill="#F12E45"/>
<path d="M33.0559 16.1844C34.4362 16.1844 35.5551 15.0635 35.5551 13.6808C35.5551 12.2981 34.4362 11.1772 33.0559 11.1772C31.6756 11.1772 30.5567 12.2981 30.5567 13.6808C30.5567 15.0635 31.6756 16.1844 33.0559 16.1844Z" fill="#F12E45"/>
<path d="M33.0559 22.1541C34.4362 22.1541 35.5551 21.0333 35.5551 19.6506C35.5551 18.2679 34.4362 17.147 33.0559 17.147C31.6756 17.147 30.5567 18.2679 30.5567 19.6506C30.5567 21.0333 31.6756 22.1541 33.0559 22.1541Z" fill="#F12E45"/>
<path d="M27.0969 22.1541C28.4772 22.1541 29.5962 21.0333 29.5962 19.6506C29.5962 18.2679 28.4772 17.147 27.0969 17.147C25.7166 17.147 24.5977 18.2679 24.5977 19.6506C24.5977 21.0333 25.7166 22.1541 27.0969 22.1541Z" fill="#F12E45"/>
<path d="M27.0969 16.1844C28.4772 16.1844 29.5962 15.0635 29.5962 13.6808C29.5962 12.2981 28.4772 11.1772 27.0969 11.1772C25.7166 11.1772 24.5977 12.2981 24.5977 13.6808C24.5977 15.0635 25.7166 16.1844 27.0969 16.1844Z" fill="#F12E45"/>
</g>
<defs>
<clipPath id="clip0_0_236">
<rect width="79.8905" height="24.073" fill="white" transform="translate(18.0547 4.62939)"/>
</clipPath>
</defs>
</svg>
