<svg width="116" height="33" viewBox="0 0 116 33" fill="none" xmlns="http://www.w3.org/2000/svg">
<path fill-rule="evenodd" clip-rule="evenodd" d="M81.8781 13.215C82.1686 13.7139 82.2637 14.2816 82.295 14.9197L82.3363 15.7702V21.7177L82.3784 22.5692C82.4627 23.9596 83.4929 24.9878 84.9006 25.0752L85.7515 25.1172V15.7702L85.7937 14.9197C85.8286 14.2887 85.9228 13.7104 86.2178 13.2079C86.5184 12.6925 86.9499 12.2649 87.469 11.9681C87.9881 11.6712 88.5766 11.5155 89.1753 11.5166C89.774 11.5176 90.3619 11.6755 90.8799 11.9742C91.3979 12.273 91.8279 12.7022 92.1266 13.2186C92.4171 13.7175 92.5076 14.2958 92.5426 14.9197L92.5847 15.7675V21.7177L92.6269 22.5692C92.7148 23.9668 93.7369 24.9949 95.1491 25.0752L96 25.1172V14.9197C96 13.1165 95.2805 11.3871 93.9998 10.1118C92.7191 8.8365 90.982 8.11968 89.1704 8.11897C88.2008 8.11796 87.2421 8.32291 86.3585 8.72014C85.4748 9.11738 84.6865 9.69775 84.0462 10.4225C83.4055 9.69803 82.6172 9.1178 81.7336 8.72045C80.85 8.3231 79.8915 8.11775 78.9219 8.11808C77.5035 8.11808 76.1872 8.54647 75.0969 9.28634C74.4316 8.54737 72.9432 8.11808 72.0887 8.11808V25.1172L72.9432 25.0752C74.3724 24.9815 75.4053 23.9811 75.4609 22.5692L75.5067 21.7177V15.7702L75.5488 14.9197C75.5847 14.278 75.6743 13.7139 75.9657 13.2115C76.2666 12.6964 76.6979 12.2689 77.2166 11.9717C77.7354 11.6744 78.3234 11.5179 78.9219 11.5175C79.5209 11.5177 80.1094 11.6746 80.6282 11.9725C81.1471 12.2705 81.5781 12.699 81.8781 13.215ZM23.4153 25.0761L24.2697 25.1172H37.0781L37.0359 24.2693C36.9203 22.8717 35.9259 21.8507 34.5173 21.7597L33.6628 21.7177H25.9787L36.2236 11.5167L36.1814 10.6697C36.1151 9.25778 35.0786 8.23767 33.6628 8.16003L32.8083 8.12165L20 8.11808L20.0421 8.96862C20.1542 10.3529 21.1629 11.3953 22.5599 11.4756L23.4153 11.5175H31.0994L20.8545 21.7186L20.8966 22.5692C20.9809 23.9703 21.9968 24.9851 23.4153 25.0752V25.0761ZM68.7362 10.6063C69.5293 11.3956 70.1584 12.3326 70.5876 13.3639C71.0168 14.3951 71.2378 15.5005 71.2378 16.6167C71.2378 17.733 71.0168 18.8384 70.5876 19.8696C70.1584 20.9009 69.5293 21.8379 68.7362 22.6272C67.134 24.2207 64.9616 25.1159 62.6965 25.1159C60.4315 25.1159 58.2591 24.2207 56.6568 22.6272C53.3223 19.308 53.3223 13.9255 56.6568 10.6063C57.4492 9.81735 58.3899 9.19145 59.4253 8.76436C60.4607 8.33727 61.5704 8.11736 62.6912 8.11719C63.8137 8.11641 64.9255 8.33594 65.9627 8.7632C67 9.19046 67.9425 9.81708 68.7362 10.6072V10.6063ZM66.3198 13.0133C67.2803 13.9701 67.8198 15.2673 67.8198 16.6199C67.8198 17.9724 67.2803 19.2696 66.3198 20.2264C65.3586 21.1824 64.0554 21.7195 62.6965 21.7195C61.3377 21.7195 60.0345 21.1824 59.0733 20.2264C58.1128 19.2696 57.5733 17.9724 57.5733 16.6199C57.5733 15.2673 58.1128 13.9701 59.0733 13.0133C60.0345 12.0573 61.3377 11.5203 62.6965 11.5203C64.0554 11.5203 65.3586 12.0573 66.3198 13.0133ZM44.7694 8.11719C45.8902 8.11748 47 8.33753 48.0353 8.76477C49.0707 9.19201 50.0114 9.81808 50.8037 10.6072C54.1391 13.9255 54.1391 19.3089 50.8037 22.6272C49.2014 24.2207 47.029 25.1159 44.764 25.1159C42.4989 25.1159 40.3266 24.2207 38.7243 22.6272C35.3897 19.308 35.3897 13.9255 38.7243 10.6063C39.5166 9.81735 40.4573 9.19145 41.4927 8.76436C42.5281 8.33727 43.6378 8.11736 44.7586 8.11719H44.7694ZM48.3872 13.0116C49.348 13.9684 49.8877 15.2658 49.8877 16.6185C49.8877 17.9713 49.348 19.2687 48.3872 20.2255C47.426 21.1815 46.1228 21.7186 44.764 21.7186C43.4051 21.7186 42.1019 21.1815 41.1407 20.2255C40.1802 19.2687 39.6407 17.9715 39.6407 16.619C39.6407 15.2664 40.1802 13.9692 41.1407 13.0125C42.1019 12.0564 43.4051 11.5194 44.764 11.5194C46.1228 11.5194 47.426 12.0564 48.3872 13.0125V13.0116Z" fill="#2D8CFF"/>
</svg>
